<svg width="40" height="40" viewBox="0 0 40 40" fill="none" xmlns="http://www.w3.org/2000/svg">
<circle cx="20" cy="20" r="20" fill="white"/>
<path d="M21.4119 20.0002L25.7119 15.7102C25.9002 15.5219 26.006 15.2665 26.006 15.0002C26.006 14.7339 25.9002 14.4785 25.7119 14.2902C25.5236 14.1019 25.2682 13.9961 25.0019 13.9961C24.7356 13.9961 24.4802 14.1019 24.2919 14.2902L20.0019 18.5902L15.7119 14.2902C15.5236 14.1019 15.2682 13.9961 15.0019 13.9961C14.7356 13.9961 14.4802 14.1019 14.2919 14.2902C14.1036 14.4785 13.9978 14.7339 13.9978 15.0002C13.9978 15.2665 14.1036 15.5219 14.2919 15.7102L18.5919 20.0002L14.2919 24.2902C14.1982 24.3831 14.1238 24.4937 14.073 24.6156C14.0222 24.7375 13.9961 24.8682 13.9961 25.0002C13.9961 25.1322 14.0222 25.2629 14.073 25.3848C14.1238 25.5066 14.1982 25.6172 14.2919 25.7102C14.3849 25.8039 14.4955 25.8783 14.6173 25.9291C14.7392 25.9798 14.8699 26.006 15.0019 26.006C15.1339 26.006 15.2646 25.9798 15.3865 25.9291C15.5083 25.8783 15.6189 25.8039 15.7119 25.7102L20.0019 21.4102L24.2919 25.7102C24.3849 25.8039 24.4955 25.8783 24.6173 25.9291C24.7392 25.9798 24.8699 26.006 25.0019 26.006C25.1339 26.006 25.2646 25.9798 25.3865 25.9291C25.5083 25.8783 25.6189 25.8039 25.7119 25.7102C25.8056 25.6172 25.88 25.5066 25.9308 25.3848C25.9816 25.2629 26.0077 25.1322 26.0077 25.0002C26.0077 24.8682 25.9816 24.7375 25.9308 24.6156C25.88 24.4937 25.8056 24.3831 25.7119 24.2902L21.4119 20.0002Z" fill="#2196F3"/>
</svg>
