<svg width="38" height="38" viewBox="0 0 38 38" fill="none" xmlns="http://www.w3.org/2000/svg">
<rect x="2.375" y="2.375" width="33.25" height="33.25" rx="6" fill="url(#paint0_radial_479_1375)"/>
<rect x="2.375" y="2.375" width="33.25" height="33.25" rx="6" fill="url(#paint1_radial_479_1375)"/>
<rect x="2.375" y="2.375" width="33.25" height="33.25" rx="6" fill="url(#paint2_radial_479_1375)"/>
<path d="M27.3125 12.4688C27.3125 13.4525 26.515 14.25 25.5312 14.25C24.5475 14.25 23.75 13.4525 23.75 12.4688C23.75 11.485 24.5475 10.6875 25.5312 10.6875C26.515 10.6875 27.3125 11.485 27.3125 12.4688Z" fill="white"/>
<path fill-rule="evenodd" clip-rule="evenodd" d="M19 24.9375C22.2792 24.9375 24.9375 22.2792 24.9375 19C24.9375 15.7208 22.2792 13.0625 19 13.0625C15.7208 13.0625 13.0625 15.7208 13.0625 19C13.0625 22.2792 15.7208 24.9375 19 24.9375ZM19 22.5625C20.9675 22.5625 22.5625 20.9675 22.5625 19C22.5625 17.0325 20.9675 15.4375 19 15.4375C17.0325 15.4375 15.4375 17.0325 15.4375 19C15.4375 20.9675 17.0325 22.5625 19 22.5625Z" fill="white"/>
<path fill-rule="evenodd" clip-rule="evenodd" d="M7.125 18.525C7.125 14.5346 7.125 12.5394 7.90158 11.0153C8.58468 9.67466 9.67466 8.58468 11.0153 7.90158C12.5394 7.125 14.5346 7.125 18.525 7.125H19.475C23.4654 7.125 25.4606 7.125 26.9847 7.90158C28.3253 8.58468 29.4153 9.67466 30.0984 11.0153C30.875 12.5394 30.875 14.5346 30.875 18.525V19.475C30.875 23.4654 30.875 25.4606 30.0984 26.9847C29.4153 28.3253 28.3253 29.4153 26.9847 30.0984C25.4606 30.875 23.4654 30.875 19.475 30.875H18.525C14.5346 30.875 12.5394 30.875 11.0153 30.0984C9.67466 29.4153 8.58468 28.3253 7.90158 26.9847C7.125 25.4606 7.125 23.4654 7.125 19.475V18.525ZM18.525 9.5H19.475C21.5094 9.5 22.8923 9.50185 23.9613 9.58918C25.0025 9.67426 25.535 9.82846 25.9065 10.0177C26.8002 10.4731 27.5269 11.1998 27.9823 12.0935C28.1715 12.465 28.3257 12.9975 28.4108 14.0387C28.4982 15.1077 28.5 16.4906 28.5 18.525V19.475C28.5 21.5094 28.4982 22.8923 28.4108 23.9613C28.3257 25.0025 28.1715 25.535 27.9823 25.9065C27.5269 26.8002 26.8002 27.5269 25.9065 27.9823C25.535 28.1715 25.0025 28.3257 23.9613 28.4108C22.8923 28.4982 21.5094 28.5 19.475 28.5H18.525C16.4906 28.5 15.1077 28.4982 14.0387 28.4108C12.9975 28.3257 12.465 28.1715 12.0935 27.9823C11.1998 27.5269 10.4731 26.8002 10.0177 25.9065C9.82846 25.535 9.67426 25.0025 9.58918 23.9613C9.50185 22.8923 9.5 21.5094 9.5 19.475V18.525C9.5 16.4906 9.50185 15.1077 9.58918 14.0387C9.67426 12.9975 9.82846 12.465 10.0177 12.0935C10.4731 11.1998 11.1998 10.4731 12.0935 10.0177C12.465 9.82846 12.9975 9.67426 14.0387 9.58918C15.1077 9.50185 16.4906 9.5 18.525 9.5Z" fill="white"/>
<defs>
<radialGradient id="paint0_radial_479_1375" cx="0" cy="0" r="1" gradientUnits="userSpaceOnUse" gradientTransform="translate(14.25 27.3125) rotate(-55.3758) scale(30.3045)">
<stop stop-color="#B13589"/>
<stop offset="0.79309" stop-color="#C62F94"/>
<stop offset="1" stop-color="#8A3AC8"/>
</radialGradient>
<radialGradient id="paint1_radial_479_1375" cx="0" cy="0" r="1" gradientUnits="userSpaceOnUse" gradientTransform="translate(13.0625 36.8125) rotate(-65.1363) scale(26.8307)">
<stop stop-color="#E0E8B7"/>
<stop offset="0.444662" stop-color="#FB8A2E"/>
<stop offset="0.71474" stop-color="#E2425C"/>
<stop offset="1" stop-color="#E2425C" stop-opacity="0"/>
</radialGradient>
<radialGradient id="paint2_radial_479_1375" cx="0" cy="0" r="1" gradientUnits="userSpaceOnUse" gradientTransform="translate(0.593752 3.5625) rotate(-8.1301) scale(46.1829 9.87805)">
<stop offset="0.156701" stop-color="#406ADC"/>
<stop offset="0.467799" stop-color="#6A45BE"/>
<stop offset="1" stop-color="#6A45BE" stop-opacity="0"/>
</radialGradient>
</defs>
</svg>
