<svg width="27" height="22" viewBox="0 0 27 22" fill="none" xmlns="http://www.w3.org/2000/svg">
<path d="M18.0027 14.2038C16.9537 14.2038 16.0101 14.6451 15.3402 15.3495L7.51263 11.5171C7.53955 11.337 7.55808 11.1548 7.55808 10.9672C7.55808 10.7845 7.54043 10.6062 7.51483 10.431L15.331 6.64056C16.0013 7.35064 16.9493 7.79636 18.0027 7.79636C20.0336 7.79636 21.6802 6.14982 21.6802 4.11889C21.6802 2.08751 20.0336 0.441406 18.0027 0.441406C15.9718 0.441406 14.3252 2.08751 14.3252 4.11889C14.3252 4.30159 14.3429 4.47944 14.3685 4.65508L6.55233 8.44554C5.88197 7.73546 4.93446 7.28973 3.8806 7.28973C1.84923 7.28973 0.203125 8.93628 0.203125 10.9672C0.203125 12.9986 1.84923 14.6447 3.8806 14.6447C4.92961 14.6447 5.87314 14.2034 6.54306 13.499L14.3707 17.3314C14.3437 17.511 14.3252 17.6937 14.3252 17.8813C14.3252 19.9127 15.9718 21.5588 18.0027 21.5588C20.0336 21.5588 21.6802 19.9127 21.6802 17.8813C21.6802 15.8499 20.0336 14.2038 18.0027 14.2038Z" fill="white"/>
</svg>
