<svg width="225" height="24" viewBox="0 0 225 24" fill="none" xmlns="http://www.w3.org/2000/svg">
<rect width="225" height="24" fill="#911E00"/>
<path d="M6.44 18H4.84L6.02 14.52H3.98L2.82 18H1.22L2.38 14.52H0.38L0.82 13.14H2.86L4.04 9.54H2L2.42 8.18H4.52L5.68 4.66H7.28L6.12 8.18H8.14L9.3 4.66H10.9L9.72 8.18H11.74L11.34 9.54H9.26L8.06 13.14H10.16L9.74 14.52H7.6L6.44 18ZM6.46 13.14L7.66 9.54H5.64L4.46 13.14H6.46ZM18.1089 18.24C15.8156 18.24 14.0089 17.5333 12.6889 16.12L13.9889 14.32C15.1356 15.5467 16.5422 16.16 18.2089 16.16C19.1022 16.16 19.7689 15.98 20.2089 15.62C20.6622 15.26 20.8889 14.8333 20.8889 14.34C20.8889 13.8333 20.6222 13.4333 20.0889 13.14C19.5556 12.8333 18.9089 12.5933 18.1489 12.42C17.3889 12.2467 16.6222 12.04 15.8489 11.8C15.0889 11.56 14.4422 11.1533 13.9089 10.58C13.3756 10.0067 13.1089 9.26667 13.1089 8.36C13.1089 7.24 13.5556 6.31333 14.4489 5.58C15.3556 4.83333 16.5289 4.46 17.9689 4.46C20.0222 4.46 21.6889 5.08 22.9689 6.32L21.6289 8.06C20.6156 7.04667 19.3289 6.54 17.7689 6.54C17.0756 6.54 16.5222 6.69333 16.1089 7C15.7089 7.29333 15.5089 7.69333 15.5089 8.2C15.5089 8.53333 15.6489 8.81333 15.9289 9.04C16.2222 9.26667 16.5956 9.45333 17.0489 9.6C17.5022 9.73333 18.0022 9.86667 18.5489 10C19.1089 10.1333 19.6622 10.3 20.2089 10.5C20.7689 10.6867 21.2756 10.92 21.7289 11.2C22.1822 11.48 22.5489 11.8667 22.8289 12.36C23.1222 12.8533 23.2689 13.44 23.2689 14.12C23.2689 15.32 22.8356 16.3067 21.9689 17.08C21.1022 17.8533 19.8156 18.24 18.1089 18.24ZM27.9709 18.24C27.1576 18.24 26.5376 18.0267 26.1109 17.6C25.6976 17.1733 25.4909 16.56 25.4909 15.76V10.18H23.8909V8.34H25.4909V5.7H27.5909V8.34H29.5509V10.18H27.5909V15.24C27.5909 15.5867 27.6709 15.8667 27.8309 16.08C27.9909 16.28 28.2176 16.38 28.5109 16.38C28.9376 16.38 29.2509 16.2667 29.4509 16.04L29.9509 17.62C29.5109 18.0333 28.8509 18.24 27.9709 18.24ZM35.8177 18.24C34.3243 18.24 33.1243 17.7533 32.2177 16.78C31.311 15.7933 30.8577 14.5867 30.8577 13.16C30.8577 11.7333 31.311 10.5333 32.2177 9.56C33.1243 8.58667 34.3243 8.1 35.8177 8.1C37.3243 8.1 38.531 8.58667 39.4377 9.56C40.3443 10.5333 40.7977 11.7333 40.7977 13.16C40.7977 14.6 40.3443 15.8067 39.4377 16.78C38.531 17.7533 37.3243 18.24 35.8177 18.24ZM35.8177 16.38C36.6843 16.38 37.3643 16.0733 37.8577 15.46C38.3643 14.8333 38.6177 14.0667 38.6177 13.16C38.6177 12.2667 38.3643 11.5133 37.8577 10.9C37.3643 10.2733 36.6843 9.96 35.8177 9.96C34.9643 9.96 34.2843 10.2733 33.7777 10.9C33.2843 11.5133 33.0377 12.2667 33.0377 13.16C33.0377 14.0667 33.2843 14.8333 33.7777 15.46C34.2843 16.0733 34.9643 16.38 35.8177 16.38ZM48.1225 18.24C46.8425 18.24 45.8092 17.7133 45.0225 16.66V21.68H42.9225V8.34H45.0225V9.66C45.7958 8.62 46.8292 8.1 48.1225 8.1C49.3892 8.1 50.4158 8.55333 51.2025 9.46C52.0025 10.3667 52.4025 11.6 52.4025 13.16C52.4025 14.72 52.0025 15.96 51.2025 16.88C50.4158 17.7867 49.3892 18.24 48.1225 18.24ZM47.5025 16.38C48.3292 16.38 48.9892 16.08 49.4825 15.48C49.9758 14.88 50.2225 14.1067 50.2225 13.16C50.2225 12.2133 49.9758 11.4467 49.4825 10.86C48.9892 10.26 48.3292 9.96 47.5025 9.96C47.0225 9.96 46.5492 10.0867 46.0825 10.34C45.6158 10.5933 45.2625 10.9 45.0225 11.26V15.08C45.2625 15.44 45.6158 15.7467 46.0825 16C46.5492 16.2533 47.0225 16.38 47.5025 16.38ZM64.865 18H62.165L59.205 13.02H56.885V18H54.545V4.66H60.405C61.7117 4.66 62.765 5.04667 63.565 5.82C64.365 6.59333 64.765 7.6 64.765 8.84C64.765 9.96 64.4583 10.86 63.845 11.54C63.2317 12.2067 62.485 12.6133 61.605 12.76L64.865 18ZM60.085 10.96C60.7517 10.96 61.2983 10.7667 61.725 10.38C62.1517 9.99333 62.365 9.48 62.365 8.84C62.365 8.2 62.1517 7.68667 61.725 7.3C61.2983 6.91333 60.7517 6.72 60.085 6.72H56.885V10.96H60.085ZM75.6636 18H73.5636V16.72C72.6569 17.7333 71.5169 18.24 70.1436 18.24C68.0769 18.24 67.0436 17.22 67.0436 15.18V8.34H69.1436V14.42C69.1436 15.1267 69.3103 15.6333 69.6436 15.94C69.9769 16.2333 70.4569 16.38 71.0836 16.38C71.5903 16.38 72.0636 16.26 72.5036 16.02C72.9436 15.78 73.2969 15.48 73.5636 15.12V8.34H75.6636V18ZM81.6913 18.24C79.9579 18.24 78.5779 17.74 77.5513 16.74L78.5113 15.22C78.8713 15.5933 79.3579 15.9133 79.9712 16.18C80.5846 16.4467 81.1913 16.58 81.7913 16.58C82.4046 16.58 82.8713 16.46 83.1913 16.22C83.5246 15.98 83.6913 15.6667 83.6913 15.28C83.6913 14.9333 83.4913 14.6667 83.0913 14.48C82.6913 14.28 82.2046 14.1267 81.6313 14.02C81.0579 13.9 80.4846 13.76 79.9113 13.6C79.3379 13.4267 78.8513 13.1267 78.4513 12.7C78.0513 12.2733 77.8513 11.72 77.8513 11.04C77.8513 10.2133 78.1913 9.52 78.8713 8.96C79.5513 8.38667 80.4779 8.1 81.6513 8.1C83.1313 8.1 84.3846 8.55333 85.4113 9.46L84.5313 10.94C84.2246 10.5933 83.8179 10.3133 83.3113 10.1C82.8046 9.88667 82.2579 9.78 81.6713 9.78C81.1246 9.78 80.6846 9.89333 80.3513 10.12C80.0313 10.3333 79.8713 10.6133 79.8713 10.96C79.8713 11.2267 80.0113 11.4467 80.2913 11.62C80.5846 11.78 80.9446 11.9 81.3713 11.98C81.8113 12.06 82.2846 12.1733 82.7913 12.32C83.2979 12.4533 83.7646 12.6133 84.1913 12.8C84.6313 12.9867 84.9913 13.2933 85.2713 13.72C85.5646 14.1333 85.7113 14.64 85.7113 15.24C85.7113 16.12 85.3579 16.84 84.6513 17.4C83.9446 17.96 82.9579 18.24 81.6913 18.24ZM91.1248 18.24C89.3915 18.24 88.0115 17.74 86.9848 16.74L87.9448 15.22C88.3048 15.5933 88.7915 15.9133 89.4048 16.18C90.0182 16.4467 90.6248 16.58 91.2248 16.58C91.8382 16.58 92.3048 16.46 92.6248 16.22C92.9582 15.98 93.1248 15.6667 93.1248 15.28C93.1248 14.9333 92.9248 14.6667 92.5248 14.48C92.1248 14.28 91.6382 14.1267 91.0648 14.02C90.4915 13.9 89.9182 13.76 89.3448 13.6C88.7715 13.4267 88.2848 13.1267 87.8848 12.7C87.4848 12.2733 87.2848 11.72 87.2848 11.04C87.2848 10.2133 87.6248 9.52 88.3048 8.96C88.9848 8.38667 89.9115 8.1 91.0848 8.1C92.5648 8.1 93.8182 8.55333 94.8448 9.46L93.9648 10.94C93.6582 10.5933 93.2515 10.3133 92.7448 10.1C92.2382 9.88667 91.6915 9.78 91.1048 9.78C90.5582 9.78 90.1182 9.89333 89.7848 10.12C89.4648 10.3333 89.3048 10.6133 89.3048 10.96C89.3048 11.2267 89.4448 11.4467 89.7248 11.62C90.0182 11.78 90.3782 11.9 90.8048 11.98C91.2448 12.06 91.7182 12.1733 92.2248 12.32C92.7315 12.4533 93.1982 12.6133 93.6248 12.8C94.0648 12.9867 94.4248 13.2933 94.7048 13.72C94.9982 14.1333 95.1448 14.64 95.1448 15.24C95.1448 16.12 94.7915 16.84 94.0848 17.4C93.3782 17.96 92.3915 18.24 91.1248 18.24ZM98.2984 7.16C97.9518 7.16 97.6451 7.03333 97.3784 6.78C97.1251 6.52667 96.9984 6.22 96.9984 5.86C96.9984 5.5 97.1251 5.19333 97.3784 4.94C97.6451 4.68667 97.9518 4.56 98.2984 4.56C98.6584 4.56 98.9651 4.68667 99.2184 4.94C99.4718 5.19333 99.5984 5.5 99.5984 5.86C99.5984 6.22 99.4718 6.52667 99.2184 6.78C98.9651 7.03333 98.6584 7.16 98.2984 7.16ZM99.3584 18H97.2584V8.34H99.3584V18ZM110.083 18H107.983V16.96C107.236 17.8133 106.196 18.24 104.863 18.24C103.983 18.24 103.203 17.96 102.523 17.4C101.843 16.8267 101.503 16.04 101.503 15.04C101.503 14.0133 101.836 13.2333 102.503 12.7C103.183 12.1667 103.969 11.9 104.863 11.9C106.236 11.9 107.276 12.3133 107.983 13.14V11.7C107.983 11.14 107.776 10.7 107.363 10.38C106.949 10.06 106.403 9.9 105.723 9.9C104.643 9.9 103.689 10.3067 102.863 11.12L102.003 9.66C103.096 8.62 104.449 8.1 106.063 8.1C107.249 8.1 108.216 8.38 108.963 8.94C109.709 9.5 110.083 10.3867 110.083 11.6V18ZM105.683 16.8C106.736 16.8 107.503 16.4667 107.983 15.8V14.34C107.503 13.6733 106.736 13.34 105.683 13.34C105.083 13.34 104.589 13.5 104.203 13.82C103.816 14.14 103.623 14.56 103.623 15.08C103.623 15.6 103.816 16.02 104.203 16.34C104.589 16.6467 105.083 16.8 105.683 16.8ZM121.425 18H119.325V11.96C119.325 10.6267 118.679 9.96 117.385 9.96C116.879 9.96 116.405 10.0867 115.965 10.34C115.525 10.5933 115.172 10.9 114.905 11.26V18H112.805V8.34H114.905V9.66C115.265 9.23333 115.745 8.86667 116.345 8.56C116.945 8.25333 117.599 8.1 118.305 8.1C119.332 8.1 120.105 8.36667 120.625 8.9C121.159 9.43333 121.425 10.2 121.425 11.2V18ZM136.213 18H133.553L132.573 15.44H126.453L125.473 18H122.813L128.053 4.66H130.973L136.213 18ZM131.913 13.38L129.513 7.02L127.113 13.38H131.913ZM141.53 21.92C139.89 21.92 138.543 21.44 137.49 20.48L138.47 18.96C139.19 19.7867 140.21 20.2 141.53 20.2C142.33 20.2 143.003 19.9867 143.55 19.56C144.11 19.1467 144.39 18.4867 144.39 17.58V16.42C143.563 17.4867 142.53 18.02 141.29 18.02C140.023 18.02 138.99 17.58 138.19 16.7C137.403 15.82 137.01 14.6067 137.01 13.06C137.01 11.5267 137.403 10.32 138.19 9.44C138.99 8.54667 140.023 8.1 141.29 8.1C142.557 8.1 143.59 8.62667 144.39 9.68V8.34H146.49V17.5C146.49 18.3267 146.343 19.04 146.05 19.64C145.77 20.2533 145.383 20.7133 144.89 21.02C144.397 21.34 143.87 21.5667 143.31 21.7C142.763 21.8467 142.17 21.92 141.53 21.92ZM141.91 16.16C142.39 16.16 142.863 16.0333 143.33 15.78C143.797 15.5267 144.15 15.22 144.39 14.86V11.26C144.15 10.9 143.797 10.5933 143.33 10.34C142.863 10.0867 142.39 9.96 141.91 9.96C141.083 9.96 140.423 10.2467 139.93 10.82C139.437 11.38 139.19 12.1267 139.19 13.06C139.19 13.9933 139.437 14.7467 139.93 15.32C140.423 15.88 141.083 16.16 141.91 16.16ZM153.132 21.92C151.492 21.92 150.145 21.44 149.092 20.48L150.072 18.96C150.792 19.7867 151.812 20.2 153.132 20.2C153.932 20.2 154.605 19.9867 155.152 19.56C155.712 19.1467 155.992 18.4867 155.992 17.58V16.42C155.165 17.4867 154.132 18.02 152.892 18.02C151.625 18.02 150.592 17.58 149.792 16.7C149.005 15.82 148.612 14.6067 148.612 13.06C148.612 11.5267 149.005 10.32 149.792 9.44C150.592 8.54667 151.625 8.1 152.892 8.1C154.158 8.1 155.192 8.62667 155.992 9.68V8.34H158.092V17.5C158.092 18.3267 157.945 19.04 157.652 19.64C157.372 20.2533 156.985 20.7133 156.492 21.02C155.998 21.34 155.472 21.5667 154.912 21.7C154.365 21.8467 153.772 21.92 153.132 21.92ZM153.512 16.16C153.992 16.16 154.465 16.0333 154.932 15.78C155.398 15.5267 155.752 15.22 155.992 14.86V11.26C155.752 10.9 155.398 10.5933 154.932 10.34C154.465 10.0867 153.992 9.96 153.512 9.96C152.685 9.96 152.025 10.2467 151.532 10.82C151.038 11.38 150.792 12.1267 150.792 13.06C150.792 13.9933 151.038 14.7467 151.532 15.32C152.025 15.88 152.685 16.16 153.512 16.16ZM162.913 18H160.813V8.34H162.913V9.76C163.286 9.28 163.753 8.88667 164.313 8.58C164.873 8.27333 165.453 8.12 166.053 8.12V10.2C165.866 10.16 165.646 10.14 165.393 10.14C164.953 10.14 164.48 10.2733 163.973 10.54C163.48 10.7933 163.126 11.0867 162.913 11.42V18ZM172.207 18.24C170.74 18.24 169.527 17.7733 168.567 16.84C167.62 15.8933 167.147 14.6667 167.147 13.16C167.147 11.7467 167.607 10.5533 168.527 9.58C169.46 8.59333 170.633 8.1 172.047 8.1C173.473 8.1 174.62 8.59333 175.487 9.58C176.367 10.5667 176.807 11.8267 176.807 13.36V13.86H169.347C169.427 14.62 169.74 15.2533 170.287 15.76C170.833 16.2667 171.547 16.52 172.427 16.52C172.92 16.52 173.413 16.4267 173.907 16.24C174.413 16.0533 174.833 15.7933 175.167 15.46L176.127 16.84C175.153 17.7733 173.847 18.24 172.207 18.24ZM174.767 12.38C174.74 11.7133 174.493 11.12 174.027 10.6C173.573 10.08 172.913 9.82 172.047 9.82C171.22 9.82 170.573 10.08 170.107 10.6C169.64 11.1067 169.38 11.7 169.327 12.38H174.767ZM182.18 18.24C180.446 18.24 179.066 17.74 178.04 16.74L179 15.22C179.36 15.5933 179.846 15.9133 180.46 16.18C181.073 16.4467 181.68 16.58 182.28 16.58C182.893 16.58 183.36 16.46 183.68 16.22C184.013 15.98 184.18 15.6667 184.18 15.28C184.18 14.9333 183.98 14.6667 183.58 14.48C183.18 14.28 182.693 14.1267 182.12 14.02C181.546 13.9 180.973 13.76 180.4 13.6C179.826 13.4267 179.34 13.1267 178.94 12.7C178.54 12.2733 178.34 11.72 178.34 11.04C178.34 10.2133 178.68 9.52 179.36 8.96C180.04 8.38667 180.966 8.1 182.14 8.1C183.62 8.1 184.873 8.55333 185.9 9.46L185.02 10.94C184.713 10.5933 184.306 10.3133 183.8 10.1C183.293 9.88667 182.746 9.78 182.16 9.78C181.613 9.78 181.173 9.89333 180.84 10.12C180.52 10.3333 180.36 10.6133 180.36 10.96C180.36 11.2267 180.5 11.4467 180.78 11.62C181.073 11.78 181.433 11.9 181.86 11.98C182.3 12.06 182.773 12.1733 183.28 12.32C183.786 12.4533 184.253 12.6133 184.68 12.8C185.12 12.9867 185.48 13.2933 185.76 13.72C186.053 14.1333 186.2 14.64 186.2 15.24C186.2 16.12 185.846 16.84 185.14 17.4C184.433 17.96 183.446 18.24 182.18 18.24ZM191.613 18.24C189.88 18.24 188.5 17.74 187.473 16.74L188.433 15.22C188.793 15.5933 189.28 15.9133 189.893 16.18C190.506 16.4467 191.113 16.58 191.713 16.58C192.326 16.58 192.793 16.46 193.113 16.22C193.446 15.98 193.613 15.6667 193.613 15.28C193.613 14.9333 193.413 14.6667 193.013 14.48C192.613 14.28 192.126 14.1267 191.553 14.02C190.98 13.9 190.406 13.76 189.833 13.6C189.26 13.4267 188.773 13.1267 188.373 12.7C187.973 12.2733 187.773 11.72 187.773 11.04C187.773 10.2133 188.113 9.52 188.793 8.96C189.473 8.38667 190.4 8.1 191.573 8.1C193.053 8.1 194.306 8.55333 195.333 9.46L194.453 10.94C194.146 10.5933 193.74 10.3133 193.233 10.1C192.726 9.88667 192.18 9.78 191.593 9.78C191.046 9.78 190.606 9.89333 190.273 10.12C189.953 10.3333 189.793 10.6133 189.793 10.96C189.793 11.2267 189.933 11.4467 190.213 11.62C190.506 11.78 190.866 11.9 191.293 11.98C191.733 12.06 192.206 12.1733 192.713 12.32C193.22 12.4533 193.686 12.6133 194.113 12.8C194.553 12.9867 194.913 13.2933 195.193 13.72C195.486 14.1333 195.633 14.64 195.633 15.24C195.633 16.12 195.28 16.84 194.573 17.4C193.866 17.96 192.88 18.24 191.613 18.24ZM198.787 7.16C198.44 7.16 198.133 7.03333 197.867 6.78C197.613 6.52667 197.487 6.22 197.487 5.86C197.487 5.5 197.613 5.19333 197.867 4.94C198.133 4.68667 198.44 4.56 198.787 4.56C199.147 4.56 199.453 4.68667 199.707 4.94C199.96 5.19333 200.087 5.5 200.087 5.86C200.087 6.22 199.96 6.52667 199.707 6.78C199.453 7.03333 199.147 7.16 198.787 7.16ZM199.847 18H197.747V8.34H199.847V18ZM206.931 18.24C205.438 18.24 204.238 17.7533 203.331 16.78C202.424 15.7933 201.971 14.5867 201.971 13.16C201.971 11.7333 202.424 10.5333 203.331 9.56C204.238 8.58667 205.438 8.1 206.931 8.1C208.438 8.1 209.644 8.58667 210.551 9.56C211.458 10.5333 211.911 11.7333 211.911 13.16C211.911 14.6 211.458 15.8067 210.551 16.78C209.644 17.7533 208.438 18.24 206.931 18.24ZM206.931 16.38C207.798 16.38 208.478 16.0733 208.971 15.46C209.478 14.8333 209.731 14.0667 209.731 13.16C209.731 12.2667 209.478 11.5133 208.971 10.9C208.478 10.2733 207.798 9.96 206.931 9.96C206.078 9.96 205.398 10.2733 204.891 10.9C204.398 11.5133 204.151 12.2667 204.151 13.16C204.151 14.0667 204.398 14.8333 204.891 15.46C205.398 16.0733 206.078 16.38 206.931 16.38ZM222.656 18H220.556V11.96C220.556 10.6267 219.909 9.96 218.616 9.96C218.109 9.96 217.636 10.0867 217.196 10.34C216.756 10.5933 216.402 10.9 216.136 11.26V18H214.036V8.34H216.136V9.66C216.496 9.23333 216.976 8.86667 217.576 8.56C218.176 8.25333 218.829 8.1 219.536 8.1C220.562 8.1 221.336 8.36667 221.856 8.9C222.389 9.43333 222.656 10.2 222.656 11.2V18Z" fill="white"/>
</svg>
