<svg width="203" height="30" viewBox="0 0 203 30" fill="none" xmlns="http://www.w3.org/2000/svg">
<path d="M6.04928 24C3.52247 24 1.50604 23.2435 0 21.7304L1.93276 18.4957C3.03719 19.7304 4.401 20.3478 6.02418 20.3478C6.60986 20.3478 7.07005 20.2087 7.40472 19.9304C7.75613 19.6522 7.93184 19.2957 7.93184 18.8609C7.93184 18.4783 7.74777 18.1478 7.37962 17.8696C7.01148 17.5739 6.5513 17.3391 5.99908 17.1652C5.44686 16.9739 4.85281 16.7304 4.21693 16.4348C3.58104 16.1391 2.98699 15.8087 2.43477 15.4435C1.88256 15.0783 1.42238 14.5478 1.05423 13.8522C0.686087 13.1391 0.502015 12.3043 0.502015 11.3478C0.502015 9.86957 1.02913 8.6087 2.08336 7.56522C3.13759 6.52174 4.56834 6 6.37559 6C8.53426 6 10.3248 6.66087 11.7472 7.98261L9.8646 11.113C8.8773 10.1565 7.6641 9.67826 6.22499 9.67826C5.72297 9.67826 5.32973 9.8 5.04525 10.0435C4.77751 10.287 4.64364 10.6087 4.64364 11.0087C4.64364 11.3565 4.82771 11.6696 5.19586 11.9478C5.564 12.2261 6.01581 12.4609 6.5513 12.6522C7.10351 12.8435 7.69756 13.0957 8.33345 13.4087C8.98607 13.7217 9.58012 14.0609 10.1156 14.4261C10.6678 14.7913 11.128 15.3217 11.4961 16.0174C11.8643 16.713 12.0484 17.5217 12.0484 18.4435C12.0484 20.1304 11.5129 21.4783 10.4419 22.487C9.38768 23.4957 7.92347 24 6.04928 24Z" fill="white"/>
<path d="M20.4757 24C18.4509 24 16.8445 23.4261 15.6564 22.2783C14.485 21.1304 13.8993 19.5391 13.8993 17.5043V6.28696H17.9908V17.5304C17.9908 18.4174 18.1999 19.1043 18.6183 19.5913C19.0534 20.0609 19.6725 20.2957 20.4757 20.2957C21.2622 20.2957 21.8647 20.0522 22.283 19.5652C22.7181 19.0783 22.9356 18.4 22.9356 17.5304V6.28696H27.027V17.5043C27.027 19.5391 26.433 21.1304 25.2449 22.2783C24.0735 23.4261 22.4838 24 20.4757 24Z" fill="white"/>
<path d="M33.7517 23.687H29.6854V6.28696H36.4124C38.1527 6.28696 39.4914 6.83478 40.4285 7.93043C41.3823 9.02609 41.8592 10.3913 41.8592 12.0261C41.8592 13.6435 41.3823 15 40.4285 16.0957C39.4914 17.1739 38.1527 17.713 36.4124 17.713H33.7517V23.687ZM35.9104 14.0348C36.4626 14.0348 36.906 13.8522 37.2407 13.487C37.5754 13.1217 37.7427 12.6261 37.7427 12C37.7427 11.3739 37.5754 10.8783 37.2407 10.513C36.906 10.1478 36.4626 9.96522 35.9104 9.96522H33.7517V14.0348H35.9104Z" fill="white"/>
<path d="M47.6993 23.687H43.6329V6.28696H50.36C52.1003 6.28696 53.439 6.83478 54.3761 7.93043C55.3299 9.02609 55.8068 10.3913 55.8068 12.0261C55.8068 13.6435 55.3299 15 54.3761 16.0957C53.439 17.1739 52.1003 17.713 50.36 17.713H47.6993V23.687ZM49.8579 14.0348C50.4102 14.0348 50.8536 13.8522 51.1883 13.487C51.523 13.1217 51.6903 12.6261 51.6903 12C51.6903 11.3739 51.523 10.8783 51.1883 10.513C50.8536 10.1478 50.4102 9.96522 49.8579 9.96522H47.6993V14.0348H49.8579Z" fill="white"/>
<path d="M69.5034 21.4957C68.1814 23.1652 66.4076 24 64.182 24C61.9564 24 60.1826 23.1652 58.8607 21.4957C57.5387 19.8261 56.8777 17.6609 56.8777 15C56.8777 12.3391 57.5387 10.1739 58.8607 8.50435C60.1826 6.83478 61.9564 6 64.182 6C66.4076 6 68.1814 6.83478 69.5034 8.50435C70.8254 10.1739 71.4864 12.3391 71.4864 15C71.4864 17.6609 70.8254 19.8261 69.5034 21.4957ZM64.182 20.2696C65.1861 20.2696 65.9642 19.7826 66.5164 18.8087C67.0854 17.8174 67.3698 16.5478 67.3698 15C67.3698 13.4348 67.0854 12.1652 66.5164 11.1913C65.9642 10.2174 65.1861 9.73043 64.182 9.73043C63.1947 9.73043 62.4166 10.2174 61.8477 11.1913C61.2954 12.1652 61.0193 13.4348 61.0193 15C61.0193 16.5478 61.2954 17.8174 61.8477 18.8087C62.4166 19.7826 63.1947 20.2696 64.182 20.2696Z" fill="white"/>
<path d="M85.764 23.687H81.2458L79.037 17.713H77.5309V23.687H73.4646V6.28696H80.292C81.8985 6.28696 83.187 6.82609 84.1575 7.90435C85.1448 8.96522 85.6385 10.313 85.6385 11.9478C85.6385 13.287 85.3707 14.3739 84.8352 15.2087C84.3165 16.0261 83.6806 16.6087 82.9276 16.9565L85.764 23.687ZM79.6645 14.0348C80.2167 14.0348 80.6602 13.8522 80.9948 13.487C81.3462 13.1217 81.5219 12.6261 81.5219 12C81.5219 11.3739 81.3462 10.8783 80.9948 10.513C80.6602 10.1478 80.2167 9.96522 79.6645 9.96522H77.5309V14.0348H79.6645Z" fill="white"/>
<path d="M94.4357 23.687H90.3694V9.96522H86.78V6.28696H98V9.96522H94.4357V23.687Z" fill="white"/>
<path d="M112.561 2.21234C112.561 2.23094 112.704 2.37973 112.988 2.65872C112.367 3.7561 112.031 4.33268 111.979 4.38848C111.487 4.85347 111.021 5.33705 110.581 5.83924C110.167 6.34143 109.675 7.00171 109.106 7.82009C108.536 8.61987 108.161 9.13135 107.98 9.35455C107.1 10.5263 105.896 12.2468 104.369 14.5159C103.385 15.9667 102.66 17.3616 102.194 18.7008C101.884 19.5192 101.767 20.3655 101.845 21.2396C101.845 21.2582 101.871 21.407 101.923 21.686C102.13 21.8162 102.402 21.8348 102.738 21.7418C103.618 21.4814 104.239 21.2768 104.602 21.128C106.388 20.477 108.174 19.6215 109.96 18.5613C112.108 17.2965 114.179 15.9109 116.172 14.4043C120.132 11.4098 123.472 8.18278 126.189 4.72327C126.422 4.44428 126.837 3.95139 127.432 3.24461C127.691 2.94702 128.105 2.82612 128.674 2.88192C129.451 2.97492 130.111 3.25391 130.655 3.7189C130.913 3.94209 131.004 4.18388 130.926 4.44428C130.59 5.35565 130.383 5.90434 130.305 6.09033C129.891 7.03891 128.92 8.86166 127.393 11.5586C125.219 15.4459 123.549 18.7101 122.384 21.3512C121.323 23.7506 120.534 25.7593 120.016 27.3775C119.99 27.5077 119.951 27.6472 119.9 27.796C119.874 27.9634 119.835 28.1307 119.783 28.2981C119.757 28.4655 119.718 28.605 119.667 28.7166C119.589 28.977 119.511 29.2002 119.434 29.3862C119.382 29.4792 119.33 29.5536 119.278 29.6094C119.252 29.6652 119.201 29.7117 119.123 29.7489C119.071 29.8047 118.942 29.8884 118.735 30C118.295 29.8698 117.971 29.5908 117.764 29.163C117.583 28.7352 117.57 28.1493 117.725 27.4054C118.088 25.3966 118.786 23.0996 119.822 20.5142C119.951 20.1795 120.961 17.7987 122.85 13.372C122.876 13.279 122.928 13.1302 123.006 12.9257C123.109 12.7211 123.161 12.6002 123.161 12.563C123.032 12.5258 122.915 12.563 122.812 12.6746C122.786 12.6932 122.773 12.7025 122.773 12.7025C122.514 12.9257 122.203 13.1953 121.841 13.5115C121.478 13.8277 121.155 14.1067 120.87 14.3485C120.611 14.5717 120.301 14.8321 119.938 15.1297C119.602 15.4087 119.291 15.6691 119.007 15.9109C117.609 17.0082 116.017 18.1428 114.231 19.3146C112.393 20.5049 110.633 21.4721 108.95 22.2161C107.915 22.6625 106.944 22.9973 106.038 23.2205C105.055 23.4809 103.812 23.5832 102.311 23.5274C101.741 23.5088 100.991 23.2763 100.059 22.8299C98.713 22.1789 98.0271 21.2582 98.0012 20.0679C97.9753 18.9333 98.3765 17.5476 99.2048 15.9109C99.8002 14.7391 100.745 13.279 102.039 11.5307C103.515 9.57774 105.029 7.71779 106.582 5.95084C107.41 5.02086 108.523 3.89559 109.921 2.57503C110.025 2.48203 110.18 2.36113 110.387 2.21234C111.112 1.69155 111.836 1.69155 112.561 2.21234Z" fill="#FCC81F"/>
<path d="M140.62 24.1412C140.62 24.1412 140.762 24.2341 141.047 24.4201C140.814 24.6433 140.452 24.7084 139.96 24.6154C139.287 24.5038 138.666 24.2435 138.096 23.8343C137.579 23.4809 137.177 23.1647 136.893 22.8857C136.53 22.5137 135.288 21.2582 133.165 19.1193C133.139 19.1007 132.945 18.8961 132.583 18.5055C132.195 18.8403 131.806 19.2309 131.418 19.6773C131.056 20.1237 130.771 20.5049 130.564 20.8211C130.383 21.1373 130.124 21.5744 129.787 22.1324C129.451 22.6904 129.205 23.0903 129.05 23.3321C128.894 23.3693 128.674 23.4158 128.39 23.4716C128.131 23.5088 127.924 23.5367 127.768 23.5553C127.613 23.4809 127.406 23.3879 127.147 23.2763C126.862 23.1461 126.694 23.0717 126.642 23.0531C126.565 22.9043 126.591 22.6718 126.72 22.3556C127.678 19.8819 129.127 16.878 131.069 13.3441C131.25 13.0279 132.415 10.7867 134.563 6.62042C136.142 3.5515 137.009 1.85895 137.164 1.54275C137.346 1.17076 137.592 0.789474 137.902 0.398884C138.265 -0.0289046 138.782 -0.112602 139.455 0.147791C140.102 0.389584 140.258 0.724376 139.921 1.15216C139.74 1.39396 139.494 1.93334 139.183 2.77032C137.837 6.41582 136.582 9.41035 135.417 11.7539C135.365 11.8841 135.262 12.098 135.107 12.3956C134.951 12.6746 134.848 12.8885 134.796 13.0372C134.77 13.0372 134.718 13.186 134.641 13.4836C134.77 13.4464 134.887 13.3999 134.99 13.3441C135.12 13.2883 135.249 13.2232 135.378 13.1488C135.534 13.0558 135.637 13 135.689 12.9814C136.362 12.6281 136.789 12.4142 136.97 12.3398C138.135 11.9678 139.119 12.1817 139.921 12.9814C139.947 13.2604 139.74 13.5394 139.3 13.8184C138.601 14.2834 137.837 14.767 137.009 15.2692C136.957 15.3064 136.453 15.5854 135.495 16.1062C135.262 16.2364 135.132 16.3015 135.107 16.3015C134.641 16.5991 134.369 16.8501 134.291 17.0547C134.239 17.2407 134.369 17.5383 134.68 17.9475C134.835 18.1521 135.042 18.3939 135.301 18.6729C136.181 19.6773 137.346 20.9699 138.795 22.5509C138.873 22.6625 138.989 22.8113 139.145 22.9973C139.326 23.1647 139.442 23.2763 139.494 23.3321C139.831 23.7041 140.206 23.9738 140.62 24.1412Z" fill="#FCC81F"/>
<path d="M152.269 16.9152C152.425 16.9896 152.58 17.1291 152.735 17.3337C152.502 17.4825 152.205 17.5104 151.842 17.4174C151.557 17.343 151.195 17.2314 150.755 17.0826C150.677 17.0454 150.315 16.8873 149.668 16.6084C149.357 16.6828 148.982 16.8966 148.542 17.25C147.765 17.8824 146.834 18.8775 145.746 20.2353C145.203 20.9234 144.672 21.5558 144.154 22.1324C144.154 22.1696 143.934 22.3928 143.494 22.802H142.291C141.592 22.5044 141.191 22.2719 141.087 22.1045C140.984 21.9185 141.01 21.5558 141.165 21.0164C141.294 20.6444 141.579 19.8912 142.019 18.7566C142.537 17.3988 142.964 16.3015 143.3 15.4645C143.456 15.0553 143.624 14.7205 143.805 14.4601C144.038 14.1067 144.439 13.9858 145.009 14.0974C145.604 14.1904 145.966 14.4043 146.096 14.7391C146.018 14.9995 145.889 15.3715 145.708 15.8551C145.526 16.3387 145.397 16.6921 145.319 16.9152C145.345 16.9152 145.371 16.9245 145.397 16.9431C145.423 16.9617 145.436 16.971 145.436 16.971C145.488 16.9524 145.539 16.9245 145.591 16.8873C145.643 16.8315 145.695 16.785 145.746 16.7478C145.798 16.7106 145.837 16.6735 145.863 16.6363C146.381 16.2457 146.652 16.0411 146.678 16.0225C147.17 15.6691 147.662 15.4738 148.154 15.4366C148.645 15.3808 149.202 15.4738 149.823 15.7156C149.823 15.7156 150.069 15.8365 150.561 16.0783C151.415 16.5061 151.985 16.785 152.269 16.9152Z" fill="#FCC81F"/>
<path d="M163.566 23.9459C163.592 23.9459 163.643 24.0296 163.721 24.197C163.41 24.3085 163.035 24.2713 162.595 24.0854C161.767 23.732 161.184 23.2298 160.848 22.5788C160.563 22.0208 160.33 21.2768 160.149 20.3469C160.149 20.2725 160.123 20.0958 160.071 19.8168C159.994 19.7796 159.916 19.7796 159.838 19.8168C159.787 19.8354 159.748 19.854 159.722 19.8726C159.722 19.8726 159.696 19.9005 159.644 19.9563C159.618 19.9935 159.592 20.0121 159.567 20.0121C158.117 21.3326 157.379 22.0022 157.353 22.0208C156.784 22.5044 156.228 22.8671 155.684 23.1089C155.063 23.3879 154.429 23.4809 153.781 23.3879C153.16 23.2949 152.63 23.0345 152.19 22.6067C151.957 22.4021 151.879 22.1324 151.957 21.7976C152.086 21.2768 152.215 20.8862 152.345 20.6258C153.303 18.6357 154.636 16.8501 156.344 15.2692C156.68 14.953 157.405 14.395 158.518 13.5952C158.803 13.3906 159.127 13.2325 159.489 13.1209C159.981 12.9536 160.421 12.9722 160.809 13.1767C161.197 13.3813 161.379 13.6882 161.353 14.0974C161.353 14.0974 161.327 14.1997 161.275 14.4043C161.12 14.4415 160.99 14.4415 160.887 14.4043C160.783 14.3671 160.68 14.3113 160.576 14.2369C160.498 14.1439 160.421 14.0881 160.343 14.0695C159.411 14.7763 158.35 15.9295 157.159 17.529C155.969 19.1286 155.36 20.226 155.334 20.8211C156.448 19.947 157.341 19.1007 158.014 18.2823C158.117 18.1707 158.79 17.2686 160.033 15.5761C160.524 15.4831 161.029 15.511 161.547 15.6598C162.09 15.8086 162.466 16.0411 162.673 16.3573C162.802 16.5247 162.854 16.7292 162.828 16.971C162.828 17.1756 162.789 17.4732 162.712 17.8638C162.66 18.2358 162.634 18.5055 162.634 18.6729C162.479 20.1051 162.543 21.407 162.828 22.5788C162.957 23.1368 163.203 23.5925 163.566 23.9459Z" fill="#2196F3"/>
<path d="M171.375 21.7139C171.763 21.5651 172.087 21.5 172.345 21.5186C172.371 21.7232 172.384 21.8255 172.384 21.8255C172.384 21.8999 172.345 21.9929 172.268 22.1045C171.931 22.5695 171.336 22.9973 170.482 23.3879C169.628 23.7599 168.76 23.8901 167.88 23.7785C166.431 23.6111 165.447 23.0159 164.93 21.9929C164.671 21.4535 164.619 20.8397 164.774 20.1516C164.955 19.3704 165.383 18.3567 166.056 17.1105C166.754 15.8272 167.453 14.7856 168.152 13.9858C168.385 13.744 168.54 13.5859 168.618 13.5115C168.825 13.3255 169.084 13.2139 169.395 13.1767C169.705 13.1395 170.003 13.186 170.288 13.3162C170.521 13.4278 170.663 13.5673 170.715 13.7347C170.792 13.8835 170.754 14.0323 170.598 14.1811C170.495 14.2927 170.391 14.4229 170.288 14.5717C170.21 14.7019 170.145 14.8228 170.094 14.9344C170.042 15.0274 169.977 15.1576 169.899 15.325C169.822 15.4738 169.757 15.5947 169.705 15.6877C168.877 17.2686 168.204 18.8031 167.686 20.2911C167.402 21.035 167.285 21.6674 167.337 22.1882C167.363 22.5602 167.505 22.8113 167.764 22.9415C168.256 22.9601 168.864 22.802 169.589 22.4672C170.339 22.1324 170.935 21.8813 171.375 21.7139ZM174.947 7.79219C175.18 7.82939 175.335 7.91308 175.413 8.04328C175.516 8.17348 175.503 8.30367 175.374 8.43387C175.296 8.50827 175.141 8.61987 174.908 8.76866C174.675 8.89886 174.352 9.08485 173.937 9.32665C173.549 9.56844 173.264 9.74514 173.083 9.85673C172.695 10.0799 172.449 10.238 172.345 10.331C172.268 10.3868 171.944 10.6658 171.375 11.168C171.452 11.4098 171.491 11.54 171.491 11.5586C171.491 11.5586 171.478 11.5865 171.452 11.6423C170.961 11.6981 170.508 11.6609 170.094 11.5307C169.679 11.3819 169.369 11.1587 169.162 10.8611C169.006 10.6379 169.019 10.4426 169.201 10.2752C169.356 10.1078 169.524 9.95903 169.705 9.82883C170.663 9.17785 171.905 8.56407 173.433 7.98748C173.899 7.80149 174.403 7.73639 174.947 7.79219Z" fill="#2196F3"/>
<path d="M185.747 22.6346C186.161 22.7834 186.368 22.9973 186.368 23.2763C185.98 23.3693 185.773 23.4158 185.747 23.4158C184.867 23.4344 184.026 23.2577 183.223 22.8857C181.877 22.2719 180.829 21.5093 180.078 20.5979C179.819 20.3004 179.612 19.9749 179.457 19.6215C179.431 19.5657 179.315 19.1751 179.107 18.4497C178.253 19.1193 177.8 19.4727 177.749 19.5099C177.49 19.7331 177.101 20.0679 176.584 20.5142C176.092 20.942 175.717 21.2675 175.458 21.4907C175.199 21.6953 174.862 21.9464 174.448 22.244C173.49 22.9136 172.546 22.9229 171.614 22.2719C171.614 22.2533 171.484 22.151 171.226 21.965C171.2 21.7232 171.303 21.3698 171.536 20.9048C171.743 20.4399 171.976 19.9377 172.235 19.3983C172.494 18.8403 172.766 18.2544 173.05 17.6406C173.361 17.0268 173.62 16.5247 173.827 16.1341C173.879 15.9853 173.943 15.8365 174.021 15.6877C174.099 15.5203 174.176 15.3436 174.254 15.1576C174.358 14.9716 174.435 14.8228 174.487 14.7112C174.642 14.3764 174.785 14.1718 174.914 14.0974C175.302 14.0974 175.6 14.1346 175.807 14.209C176.04 14.2834 176.208 14.395 176.312 14.5438C176.415 14.6926 176.48 14.9065 176.506 15.1855C176.506 15.4645 176.519 15.8179 176.545 16.2457C176.545 16.2457 176.532 16.3015 176.506 16.4131C176.454 16.4317 176.364 16.4689 176.234 16.5247C176.131 16.5619 176.053 16.5991 176.001 16.6363C175.95 16.7478 175.872 16.9152 175.768 17.1384C175.691 17.343 175.613 17.5476 175.535 17.7522C175.458 17.9568 175.367 18.1707 175.264 18.3939C175.626 18.1707 175.82 18.0498 175.846 18.0312C176.027 17.8824 176.247 17.715 176.506 17.529C176.765 17.343 176.998 17.1663 177.205 16.9989C177.412 16.8315 177.632 16.6642 177.865 16.4968C178.098 16.3294 178.331 16.162 178.564 15.9946C178.797 15.8086 179.017 15.6319 179.224 15.4645C179.949 14.9437 180.725 14.8228 181.554 15.1018C182.641 15.4924 183.145 16.0225 183.068 16.6921C182.938 17.8638 182.835 18.7101 182.757 19.2309C182.654 19.7703 182.667 20.2632 182.796 20.7095C183.081 21.6395 183.818 22.2254 185.009 22.4672C185.372 22.523 185.617 22.5788 185.747 22.6346Z" fill="#2196F3"/>
<path d="M202.738 16.0225C203.074 16.2643 203.087 16.5433 202.776 16.8594C202.466 17.1756 202.142 17.4453 201.806 17.6685C200.693 18.4683 199.813 19.0728 199.165 19.482C198.078 20.1702 196.383 21.2303 194.079 22.6625C193.95 22.7369 193.807 22.8206 193.652 22.9136C193.497 22.988 193.328 23.0717 193.147 23.1647C192.992 23.2577 192.863 23.3321 192.759 23.3879C191.982 23.8343 190.921 24.0296 189.575 23.9738C188.825 23.9552 188.165 23.7134 187.595 23.2484C187.051 22.7834 186.806 22.2812 186.857 21.7418C186.883 21.5744 186.935 21.3326 187.013 21.0164C187.09 20.7002 187.129 20.4956 187.129 20.4027C187.207 20.0493 187.427 19.5192 187.789 18.8124C188.514 17.4174 189.239 16.3294 189.963 15.5482C190.533 14.953 191.128 14.4415 191.75 14.0137C192.293 13.6417 192.927 13.4836 193.652 13.5394C194.377 13.5766 194.985 13.8091 195.477 14.2369C195.788 14.5345 195.904 14.8414 195.826 15.1576C195.697 15.5854 195.567 15.9295 195.438 16.1899C194.765 17.3244 193.704 18.273 192.254 19.0356C192.203 19.0728 191.672 19.3425 190.662 19.8447C190.171 21.035 189.951 21.9278 190.002 22.523C190.624 22.2998 190.947 22.1789 190.973 22.1603C192.19 21.6209 193.018 21.2396 193.458 21.0164C196.616 19.3797 199.217 17.8824 201.262 16.5247C201.832 16.1713 202.323 16.0039 202.738 16.0225ZM193.303 15.046C192.293 15.8272 191.542 16.8594 191.051 18.1428C191.361 17.9196 191.672 17.6313 191.982 17.2779C192.293 16.9245 192.565 16.5526 192.798 16.162C193.031 15.7528 193.199 15.3808 193.303 15.046Z" fill="#2196F3"/>
</svg>
