<svg width="157" height="42" viewBox="0 0 157 42" fill="none" xmlns="http://www.w3.org/2000/svg">
<path d="M5.02 37.24C3.00667 37.24 1.4 36.66 0.2 35.5L1.74 33.02C2.62 33.9667 3.70667 34.44 5 34.44C5.46667 34.44 5.83333 34.3333 6.1 34.12C6.38 33.9067 6.52 33.6333 6.52 33.3C6.52 33.0067 6.37333 32.7533 6.08 32.54C5.78667 32.3133 5.42 32.1333 4.98 32C4.54 31.8533 4.06667 31.6667 3.56 31.44C3.05333 31.2133 2.58 30.96 2.14 30.68C1.7 30.4 1.33333 29.9933 1.04 29.46C0.746667 28.9133 0.6 28.2733 0.6 27.54C0.6 26.4067 1.02 25.44 1.86 24.64C2.7 23.84 3.84 23.44 5.28 23.44C7 23.44 8.42667 23.9467 9.56 24.96L8.06 27.36C7.27333 26.6267 6.30667 26.26 5.16 26.26C4.76 26.26 4.44667 26.3533 4.22 26.54C4.00667 26.7267 3.9 26.9733 3.9 27.28C3.9 27.5467 4.04667 27.7867 4.34 28C4.63333 28.2133 4.99333 28.3933 5.42 28.54C5.86 28.6867 6.33333 28.88 6.84 29.12C7.36 29.36 7.83333 29.62 8.26 29.9C8.7 30.18 9.06667 30.5867 9.36 31.12C9.65333 31.6533 9.8 32.2733 9.8 32.98C9.8 34.2733 9.37333 35.3067 8.52 36.08C7.68 36.8533 6.51333 37.24 5.02 37.24ZM16.5148 37.24C14.9015 37.24 13.6215 36.8 12.6748 35.92C11.7415 35.04 11.2748 33.82 11.2748 32.26V23.66H14.5348V32.28C14.5348 32.96 14.7015 33.4867 15.0348 33.86C15.3815 34.22 15.8748 34.4 16.5148 34.4C17.1415 34.4 17.6215 34.2133 17.9548 33.84C18.3015 33.4667 18.4748 32.9467 18.4748 32.28V23.66H21.7348V32.26C21.7348 33.82 21.2615 35.04 20.3148 35.92C19.3815 36.8 18.1148 37.24 16.5148 37.24ZM27.093 37H23.853V23.66H29.213C30.5996 23.66 31.6663 24.08 32.413 24.92C33.173 25.76 33.553 26.8067 33.553 28.06C33.553 29.3 33.173 30.34 32.413 31.18C31.6663 32.0067 30.5996 32.42 29.213 32.42H27.093V37ZM28.813 29.6C29.253 29.6 29.6063 29.46 29.873 29.18C30.1396 28.9 30.273 28.52 30.273 28.04C30.273 27.56 30.1396 27.18 29.873 26.9C29.6063 26.62 29.253 26.48 28.813 26.48H27.093V29.6H28.813ZM38.2063 37H34.9663V23.66H40.3263C41.7129 23.66 42.7796 24.08 43.5263 24.92C44.2863 25.76 44.6663 26.8067 44.6663 28.06C44.6663 29.3 44.2863 30.34 43.5263 31.18C42.7796 32.0067 41.7129 32.42 40.3263 32.42H38.2063V37ZM39.9263 29.6C40.3663 29.6 40.7196 29.46 40.9863 29.18C41.2529 28.9 41.3863 28.52 41.3863 28.04C41.3863 27.56 41.2529 27.18 40.9863 26.9C40.7196 26.62 40.3663 26.48 39.9263 26.48H38.2063V29.6H39.9263ZM55.5795 35.32C54.5262 36.6 53.1129 37.24 51.3395 37.24C49.5662 37.24 48.1529 36.6 47.0995 35.32C46.0462 34.04 45.5195 32.38 45.5195 30.34C45.5195 28.3 46.0462 26.64 47.0995 25.36C48.1529 24.08 49.5662 23.44 51.3395 23.44C53.1129 23.44 54.5262 24.08 55.5795 25.36C56.6329 26.64 57.1595 28.3 57.1595 30.34C57.1595 32.38 56.6329 34.04 55.5795 35.32ZM51.3395 34.38C52.1395 34.38 52.7595 34.0067 53.1995 33.26C53.6529 32.5 53.8795 31.5267 53.8795 30.34C53.8795 29.14 53.6529 28.1667 53.1995 27.42C52.7595 26.6733 52.1395 26.3 51.3395 26.3C50.5529 26.3 49.9329 26.6733 49.4795 27.42C49.0395 28.1667 48.8195 29.14 48.8195 30.34C48.8195 31.5267 49.0395 32.5 49.4795 33.26C49.9329 34.0067 50.5529 34.38 51.3395 34.38ZM68.5358 37H64.9358L63.1758 32.42H61.9758V37H58.7358V23.66H64.1758C65.4558 23.66 66.4824 24.0733 67.2558 24.9C68.0424 25.7133 68.4358 26.7467 68.4358 28C68.4358 29.0267 68.2224 29.86 67.7958 30.5C67.3824 31.1267 66.8758 31.5733 66.2758 31.84L68.5358 37ZM63.6758 29.6C64.1158 29.6 64.4691 29.46 64.7358 29.18C65.0158 28.9 65.1558 28.52 65.1558 28.04C65.1558 27.56 65.0158 27.18 64.7358 26.9C64.4691 26.62 64.1158 26.48 63.6758 26.48H61.9758V29.6H63.6758ZM75.4453 37H72.2053V26.48H69.3453V23.66H78.2853V26.48H75.4453V37Z" fill="white"/>
<path d="M92.4009 21.6224C92.4009 21.636 92.5026 21.7451 92.706 21.9497C92.2622 22.7545 92.0219 23.1773 91.9849 23.2182C91.6336 23.5592 91.3008 23.9138 90.9865 24.2821C90.6907 24.6504 90.3394 25.1346 89.9326 25.7347C89.5259 26.3212 89.2578 26.6963 89.1283 26.86C88.4997 27.7193 87.64 28.981 86.5491 30.645C85.8465 31.7089 85.3289 32.7319 84.9961 33.7139C84.7742 34.3141 84.691 34.9347 84.7465 35.5757C84.7465 35.5894 84.7649 35.6985 84.8019 35.9031C84.9498 35.9986 85.144 36.0122 85.3843 35.944C86.013 35.753 86.4567 35.603 86.7155 35.4939C87.9913 35.0165 89.267 34.3891 90.5428 33.6116C92.0773 32.6841 93.5565 31.668 94.9801 30.5632C97.8089 28.3672 100.194 26.0007 102.135 23.4637C102.302 23.2591 102.598 22.8977 103.023 22.3794C103.208 22.1611 103.504 22.0725 103.91 22.1134C104.465 22.1816 104.936 22.3862 105.325 22.7272C105.51 22.8909 105.574 23.0682 105.519 23.2591C105.278 23.9275 105.131 24.3298 105.075 24.4662C104.779 25.1619 104.086 26.4986 102.995 28.4763C101.442 31.327 100.249 33.7207 99.4175 35.6576C98.6594 37.4171 98.0955 38.8902 97.7257 40.0768C97.7072 40.1723 97.6795 40.2746 97.6425 40.3837C97.624 40.5065 97.5963 40.6292 97.5593 40.752C97.5408 40.8747 97.5131 40.977 97.4761 41.0589C97.4206 41.2498 97.3652 41.4135 97.3097 41.5499C97.2727 41.6181 97.2358 41.6726 97.1988 41.7136C97.1803 41.7545 97.1433 41.7886 97.0879 41.8159C97.0509 41.8568 96.9584 41.9182 96.8105 42C96.4962 41.9045 96.2651 41.6999 96.1172 41.3862C95.9878 41.0725 95.9785 40.6429 96.0894 40.0973C96.3483 38.6242 96.8475 36.9397 97.5871 35.0438C97.6795 34.7983 98.4006 33.0524 99.7503 29.8062C99.7687 29.738 99.8057 29.6288 99.8612 29.4788C99.9352 29.3288 99.9721 29.2401 99.9721 29.2128C99.8797 29.1856 99.7965 29.2128 99.7225 29.2947C99.704 29.3083 99.6948 29.3151 99.6948 29.3151C99.5099 29.4788 99.288 29.6766 99.0292 29.9085C98.7703 30.1403 98.5392 30.3449 98.3359 30.5222C98.151 30.6859 97.9291 30.8769 97.6703 31.0951C97.4299 31.2997 97.208 31.4907 97.0046 31.668C96.0062 32.4727 94.8692 33.3047 93.5934 34.164C92.2807 35.037 91.0235 35.7462 89.8217 36.2918C89.0821 36.6192 88.3888 36.8647 87.7417 37.0284C87.0391 37.2193 86.1516 37.2943 85.0793 37.2534C84.6725 37.2398 84.1363 37.0693 83.4707 36.7419C82.5093 36.2645 82.0193 35.5894 82.0008 34.7164C81.9824 33.8844 82.2689 32.8683 82.8606 31.668C83.2858 30.8087 83.9607 29.738 84.8851 28.4558C85.939 27.0237 87.0206 25.6597 88.1299 24.3639C88.7216 23.682 89.5166 22.8568 90.515 21.8884C90.589 21.8202 90.6999 21.7315 90.8478 21.6224C91.3655 21.2405 91.8832 21.2405 92.4009 21.6224Z" fill="#FCC81F"/>
<path d="M112.443 37.7035C112.443 37.7035 112.545 37.7717 112.748 37.9081C112.582 38.0718 112.323 38.1195 111.971 38.0513C111.491 37.9695 111.047 37.7785 110.64 37.4785C110.27 37.2193 109.984 36.9874 109.78 36.7828C109.522 36.51 108.634 35.5894 107.118 34.0208C107.1 34.0072 106.961 33.8571 106.702 33.5707C106.425 33.8162 106.147 34.1026 105.87 34.43C105.611 34.7574 105.408 35.037 105.26 35.2688C105.13 35.5007 104.946 35.8212 104.705 36.2304C104.465 36.6396 104.289 36.9329 104.178 37.1102C104.067 37.1375 103.91 37.1716 103.707 37.2125C103.522 37.2398 103.374 37.2602 103.263 37.2739C103.152 37.2193 103.004 37.1511 102.819 37.0693C102.616 36.9738 102.496 36.9192 102.459 36.9056C102.403 36.7965 102.422 36.626 102.514 36.3941C103.198 34.58 104.234 32.3772 105.62 29.7857C105.75 29.5538 106.582 27.9103 108.116 24.855C109.244 22.6044 109.864 21.3632 109.975 21.1314C110.104 20.8586 110.28 20.5789 110.502 20.2925C110.76 19.9788 111.13 19.9174 111.611 20.1084C112.073 20.2857 112.184 20.5312 111.944 20.8449C111.814 21.0222 111.639 21.4178 111.417 22.0316C110.455 24.7049 109.559 26.9009 108.727 28.6195C108.69 28.715 108.616 28.8718 108.505 29.0901C108.394 29.2947 108.32 29.4515 108.283 29.5606C108.264 29.5606 108.227 29.6698 108.172 29.888C108.264 29.8607 108.348 29.8266 108.422 29.7857C108.514 29.7448 108.606 29.697 108.699 29.6425C108.81 29.5743 108.884 29.5334 108.921 29.5197C109.401 29.2606 109.707 29.1037 109.836 29.0492C110.668 28.7764 111.371 28.9332 111.944 29.5197C111.962 29.7243 111.814 29.9289 111.5 30.1335C111.001 30.4745 110.455 30.8291 109.864 31.1974C109.827 31.2247 109.466 31.4293 108.782 31.8112C108.616 31.9067 108.523 31.9544 108.505 31.9544C108.172 32.1726 107.978 32.3568 107.922 32.5068C107.885 32.6432 107.978 32.8614 108.2 33.1615C108.311 33.3115 108.458 33.4889 108.643 33.6935C109.272 34.43 110.104 35.378 111.139 36.5373C111.195 36.6192 111.278 36.7283 111.389 36.8647C111.518 36.9874 111.602 37.0693 111.639 37.1102C111.879 37.383 112.147 37.5808 112.443 37.7035Z" fill="#FCC81F"/>
<path d="M120.764 32.4045C120.875 32.4591 120.986 32.5614 121.097 32.7114C120.93 32.8205 120.718 32.841 120.459 32.7728C120.255 32.7182 119.996 32.6364 119.682 32.5273C119.627 32.5 119.368 32.3841 118.906 32.1795C118.684 32.234 118.416 32.3909 118.101 32.65C117.547 33.1138 116.881 33.8435 116.105 34.8392C115.716 35.3439 115.337 35.8076 114.967 36.2304C114.967 36.2577 114.81 36.4214 114.496 36.7215H113.636C113.137 36.5032 112.851 36.3327 112.777 36.21C112.703 36.0736 112.721 35.8076 112.832 35.4121C112.924 35.1393 113.128 34.5869 113.442 33.7548C113.812 32.7591 114.117 31.9544 114.357 31.3406C114.468 31.0405 114.588 30.795 114.718 30.6041C114.884 30.3449 115.171 30.2563 115.578 30.3381C116.003 30.4063 116.262 30.5632 116.354 30.8087C116.299 30.9996 116.206 31.2724 116.077 31.6271C115.947 31.9817 115.855 32.2408 115.799 32.4045C115.818 32.4045 115.836 32.4113 115.855 32.425C115.873 32.4386 115.883 32.4454 115.883 32.4454C115.92 32.4318 115.957 32.4113 115.994 32.3841C116.031 32.3431 116.068 32.309 116.105 32.2818C116.142 32.2545 116.169 32.2272 116.188 32.1999C116.558 31.9135 116.752 31.7635 116.77 31.7498C117.121 31.4907 117.473 31.3474 117.824 31.3202C118.175 31.2792 118.573 31.3474 119.017 31.5248C119.017 31.5248 119.192 31.6134 119.544 31.7907C120.154 32.1044 120.56 32.309 120.764 32.4045Z" fill="#FCC81F"/>
<path d="M128.833 37.5603C128.851 37.5603 128.888 37.6217 128.944 37.7444C128.722 37.8263 128.454 37.799 128.139 37.6626C127.548 37.4034 127.132 37.0352 126.891 36.5578C126.688 36.1486 126.522 35.603 126.392 34.921C126.392 34.8665 126.374 34.7369 126.337 34.5323C126.281 34.505 126.226 34.505 126.17 34.5323C126.133 34.5459 126.106 34.5596 126.087 34.5732C126.087 34.5732 126.069 34.5937 126.032 34.6346C126.013 34.6619 125.995 34.6755 125.976 34.6755C124.941 35.6439 124.414 36.135 124.395 36.1486C123.989 36.5032 123.591 36.7692 123.203 36.9465C122.759 37.1511 122.306 37.2193 121.844 37.1511C121.4 37.0829 121.021 36.892 120.707 36.5782C120.54 36.4282 120.485 36.2304 120.54 35.9849C120.633 35.603 120.725 35.3166 120.818 35.1256C121.502 33.6662 122.454 32.3568 123.674 31.1974C123.915 30.9655 124.432 30.5563 125.227 29.9698C125.431 29.8198 125.662 29.7039 125.921 29.622C126.272 29.4993 126.586 29.5129 126.864 29.6629C127.141 29.813 127.27 30.038 127.252 30.3381C127.252 30.3381 127.233 30.4131 127.196 30.5632C127.085 30.5904 126.993 30.5904 126.919 30.5632C126.845 30.5359 126.771 30.495 126.697 30.4404C126.642 30.3722 126.586 30.3313 126.531 30.3176C125.865 30.836 125.107 31.6816 124.257 32.8546C123.406 34.0276 122.972 34.8324 122.953 35.2688C123.748 34.6278 124.386 34.0072 124.867 33.407C124.941 33.3252 125.421 32.6637 126.309 31.4225C126.66 31.3543 127.021 31.3747 127.391 31.4838C127.779 31.593 128.047 31.7635 128.195 31.9953C128.287 32.1181 128.324 32.2681 128.306 32.4454C128.306 32.5955 128.278 32.8137 128.223 33.1001C128.186 33.3729 128.167 33.5707 128.167 33.6935C128.056 34.7437 128.102 35.6985 128.306 36.5578C128.398 36.967 128.574 37.3011 128.833 37.5603Z" fill="#2196F3"/>
<path d="M134.411 35.9235C134.688 35.8144 134.919 35.7667 135.104 35.7803C135.122 35.9304 135.132 36.0054 135.132 36.0054C135.132 36.0599 135.104 36.1281 135.048 36.21C134.808 36.551 134.383 36.8647 133.773 37.1511C133.163 37.4239 132.543 37.5194 131.915 37.4375C130.879 37.3148 130.177 36.8783 129.807 36.1281C129.622 35.7326 129.585 35.2825 129.696 34.7778C129.825 34.2049 130.13 33.4616 130.611 32.5477C131.11 31.6066 131.61 30.8428 132.109 30.2563C132.275 30.079 132.386 29.963 132.442 29.9085C132.589 29.7721 132.774 29.6902 132.996 29.6629C133.218 29.6357 133.431 29.6698 133.634 29.7652C133.8 29.8471 133.902 29.9494 133.939 30.0721C133.995 30.1813 133.967 30.2904 133.856 30.3995C133.782 30.4813 133.708 30.5768 133.634 30.6859C133.579 30.7814 133.532 30.8701 133.495 30.9519C133.458 31.0201 133.412 31.1156 133.357 31.2383C133.301 31.3474 133.255 31.4361 133.218 31.5043C132.626 32.6637 132.146 33.7889 131.776 34.8801C131.573 35.4257 131.489 35.8894 131.526 36.2714C131.545 36.5441 131.646 36.7283 131.831 36.8238C132.183 36.8374 132.617 36.7215 133.135 36.4759C133.671 36.2304 134.096 36.0463 134.411 35.9235ZM136.962 25.7143C137.128 25.7416 137.239 25.8029 137.295 25.8984C137.369 25.9939 137.36 26.0894 137.267 26.1848C137.212 26.2394 137.101 26.3212 136.934 26.4304C136.768 26.5258 136.537 26.6622 136.241 26.8395C135.964 27.0169 135.76 27.1464 135.631 27.2283C135.354 27.3919 135.178 27.5079 135.104 27.5761C135.048 27.617 134.817 27.8216 134.411 28.1899C134.466 28.3672 134.494 28.4627 134.494 28.4763C134.494 28.4763 134.485 28.4968 134.466 28.5377C134.115 28.5786 133.791 28.5513 133.495 28.4558C133.2 28.3467 132.978 28.183 132.83 27.9648C132.719 27.8011 132.728 27.6579 132.858 27.5352C132.968 27.4124 133.089 27.3033 133.218 27.2078C133.902 26.7304 134.79 26.2803 135.88 25.8575C136.213 25.7211 136.574 25.6734 136.962 25.7143Z" fill="#2196F3"/>
<path d="M144.676 36.5987C144.972 36.7078 145.12 36.8647 145.12 37.0693C144.843 37.1375 144.695 37.1716 144.676 37.1716C144.048 37.1852 143.447 37.0556 142.874 36.7828C141.912 36.3327 141.163 35.7735 140.627 35.1052C140.442 34.8869 140.294 34.6482 140.183 34.3891C140.165 34.3482 140.082 34.0617 139.934 33.5298C139.324 34.0208 139 34.28 138.963 34.3072C138.778 34.4709 138.501 34.7164 138.131 35.0438C137.78 35.3575 137.512 35.5962 137.327 35.7599C137.142 35.9099 136.902 36.094 136.606 36.3123C135.922 36.8033 135.247 36.8101 134.581 36.3327C134.581 36.3191 134.489 36.2441 134.304 36.1077C134.286 35.9304 134.359 35.6712 134.526 35.3302C134.674 34.9892 134.84 34.621 135.025 34.2254C135.21 33.8162 135.404 33.3866 135.607 32.9365C135.829 32.4864 136.014 32.1181 136.162 31.8316C136.199 31.7225 136.245 31.6134 136.301 31.5043C136.356 31.3815 136.412 31.252 136.467 31.1156C136.541 30.9792 136.597 30.8701 136.634 30.7882C136.745 30.5427 136.846 30.3927 136.939 30.3381C137.216 30.3381 137.429 30.3654 137.577 30.4199C137.743 30.4745 137.863 30.5563 137.937 30.6655C138.011 30.7746 138.057 30.9314 138.076 31.136C138.076 31.3406 138.085 31.5998 138.103 31.9135C138.103 31.9135 138.094 31.9544 138.076 32.0362C138.039 32.0499 137.974 32.0772 137.882 32.1181C137.808 32.1454 137.752 32.1726 137.715 32.1999C137.678 32.2818 137.623 32.4045 137.549 32.5682C137.493 32.7182 137.438 32.8683 137.382 33.0183C137.327 33.1683 137.262 33.3252 137.188 33.4889C137.447 33.3252 137.586 33.2365 137.604 33.2229C137.734 33.1138 137.891 32.991 138.076 32.8546C138.261 32.7182 138.427 32.5886 138.575 32.4659C138.723 32.3431 138.88 32.2204 139.046 32.0976C139.213 31.9749 139.379 31.8521 139.546 31.7294C139.712 31.593 139.869 31.4634 140.017 31.3406C140.535 30.9587 141.089 30.8701 141.681 31.0746C142.458 31.3611 142.818 31.7498 142.763 32.2408C142.67 33.1001 142.596 33.7207 142.541 34.1026C142.467 34.4982 142.476 34.8596 142.569 35.187C142.772 35.869 143.299 36.2986 144.149 36.4759C144.408 36.5169 144.584 36.5578 144.676 36.5987Z" fill="#2196F3"/>
<path d="M156.813 31.7498C157.053 31.9271 157.062 32.1317 156.84 32.3636C156.618 32.5955 156.387 32.7932 156.147 32.9569C155.352 33.5434 154.723 33.9867 154.261 34.2868C153.485 34.7914 152.273 35.5689 150.628 36.6192C150.536 36.6737 150.434 36.7351 150.323 36.8033C150.212 36.8579 150.092 36.9192 149.962 36.9874C149.851 37.0556 149.759 37.1102 149.685 37.1511C149.13 37.4785 148.372 37.6217 147.411 37.5808C146.875 37.5671 146.403 37.3898 145.996 37.0488C145.608 36.7078 145.433 36.3395 145.47 35.944C145.488 35.8212 145.525 35.6439 145.58 35.4121C145.636 35.1802 145.664 35.0301 145.664 34.9619C145.719 34.7028 145.876 34.3141 146.135 33.7958C146.653 32.7728 147.171 31.9749 147.688 31.402C148.095 30.9655 148.52 30.5904 148.964 30.2767C149.352 30.0039 149.805 29.888 150.323 29.9289C150.841 29.9562 151.275 30.1267 151.626 30.4404C151.848 30.6586 151.931 30.8837 151.876 31.1156C151.784 31.4293 151.691 31.6816 151.599 31.8726C151.118 32.7046 150.36 33.4002 149.324 33.9594C149.288 33.9867 148.908 34.1845 148.187 34.5528C147.836 35.4257 147.679 36.0804 147.716 36.5169C148.16 36.3532 148.391 36.2645 148.409 36.2509C149.278 35.8553 149.87 35.5757 150.184 35.4121C152.44 34.2118 154.298 33.1138 155.759 32.1181C156.165 31.8589 156.517 31.7362 156.813 31.7498ZM150.073 31.0337C149.352 31.6066 148.816 32.3636 148.465 33.3047C148.687 33.1411 148.908 32.9296 149.13 32.6705C149.352 32.4113 149.546 32.1385 149.713 31.8521C149.879 31.552 149.999 31.2792 150.073 31.0337Z" fill="#2196F3"/>
<rect width="157" height="17" fill="#901E00"/>
<path d="M4.508 13H3.388L4.214 10.564H2.786L1.974 13H0.854L1.666 10.564H0.266L0.574 9.598H2.002L2.828 7.078H1.4L1.694 6.126H3.164L3.976 3.662H5.096L4.284 6.126H5.698L6.51 3.662H7.63L6.804 6.126H8.218L7.938 7.078H6.482L5.642 9.598H7.112L6.818 10.564H5.32L4.508 13ZM4.522 9.598L5.362 7.078H3.948L3.122 9.598H4.522ZM12.6762 13.168C11.0709 13.168 9.80623 12.6733 8.88223 11.684L9.79223 10.424C10.5949 11.2827 11.5796 11.712 12.7462 11.712C13.3716 11.712 13.8382 11.586 14.1462 11.334C14.4636 11.082 14.6222 10.7833 14.6222 10.438C14.6222 10.0833 14.4356 9.80333 14.0622 9.598C13.6889 9.38333 13.2362 9.21533 12.7042 9.094C12.1722 8.97267 11.6356 8.828 11.0942 8.66C10.5622 8.492 10.1096 8.20733 9.73623 7.806C9.3629 7.40467 9.17623 6.88667 9.17623 6.252C9.17623 5.468 9.4889 4.81933 10.1142 4.306C10.7489 3.78333 11.5702 3.522 12.5782 3.522C14.0156 3.522 15.1822 3.956 16.0782 4.824L15.1402 6.042C14.4309 5.33267 13.5302 4.978 12.4382 4.978C11.9529 4.978 11.5656 5.08533 11.2762 5.3C10.9962 5.50533 10.8562 5.78533 10.8562 6.14C10.8562 6.37333 10.9542 6.56933 11.1502 6.728C11.3556 6.88667 11.6169 7.01733 11.9342 7.12C12.2516 7.21333 12.6016 7.30667 12.9842 7.4C13.3762 7.49333 13.7636 7.61 14.1462 7.75C14.5382 7.88067 14.8929 8.044 15.2102 8.24C15.5276 8.436 15.7842 8.70667 15.9802 9.052C16.1856 9.39733 16.2882 9.808 16.2882 10.284C16.2882 11.124 15.9849 11.8147 15.3782 12.356C14.7716 12.8973 13.8709 13.168 12.6762 13.168ZM19.5797 13.168C19.0103 13.168 18.5763 13.0187 18.2777 12.72C17.9883 12.4213 17.8437 11.992 17.8437 11.432V7.526H16.7237V6.238H17.8437V4.39H19.3137V6.238H20.6857V7.526H19.3137V11.068C19.3137 11.3107 19.3697 11.5067 19.4817 11.656C19.5937 11.796 19.7523 11.866 19.9577 11.866C20.2563 11.866 20.4757 11.7867 20.6157 11.628L20.9657 12.734C20.6577 13.0233 20.1957 13.168 19.5797 13.168ZM25.0724 13.168C24.027 13.168 23.187 12.8273 22.5524 12.146C21.9177 11.4553 21.6004 10.6107 21.6004 9.612C21.6004 8.61333 21.9177 7.77333 22.5524 7.092C23.187 6.41067 24.027 6.07 25.0724 6.07C26.127 6.07 26.9717 6.41067 27.6064 7.092C28.241 7.77333 28.5584 8.61333 28.5584 9.612C28.5584 10.62 28.241 11.4647 27.6064 12.146C26.9717 12.8273 26.127 13.168 25.0724 13.168ZM25.0724 11.866C25.679 11.866 26.155 11.6513 26.5004 11.222C26.855 10.7833 27.0324 10.2467 27.0324 9.612C27.0324 8.98667 26.855 8.45933 26.5004 8.03C26.155 7.59133 25.679 7.372 25.0724 7.372C24.475 7.372 23.999 7.59133 23.6444 8.03C23.299 8.45933 23.1264 8.98667 23.1264 9.612C23.1264 10.2467 23.299 10.7833 23.6444 11.222C23.999 11.6513 24.475 11.866 25.0724 11.866ZM33.6858 13.168C32.7898 13.168 32.0664 12.7993 31.5158 12.062V15.576H30.0458V6.238H31.5158V7.162C32.0571 6.434 32.7804 6.07 33.6858 6.07C34.5724 6.07 35.2911 6.38733 35.8418 7.022C36.4018 7.65667 36.6818 8.52 36.6818 9.612C36.6818 10.704 36.4018 11.572 35.8418 12.216C35.2911 12.8507 34.5724 13.168 33.6858 13.168ZM33.2518 11.866C33.8304 11.866 34.2924 11.656 34.6378 11.236C34.9831 10.816 35.1558 10.2747 35.1558 9.612C35.1558 8.94933 34.9831 8.41267 34.6378 8.002C34.2924 7.582 33.8304 7.372 33.2518 7.372C32.9158 7.372 32.5844 7.46067 32.2578 7.638C31.9311 7.81533 31.6838 8.03 31.5158 8.282V10.956C31.6838 11.208 31.9311 11.4227 32.2578 11.6C32.5844 11.7773 32.9158 11.866 33.2518 11.866ZM45.4055 13H43.5155L41.4435 9.514H39.8195V13H38.1815V3.662H42.2835C43.1982 3.662 43.9355 3.93267 44.4955 4.474C45.0555 5.01533 45.3355 5.72 45.3355 6.588C45.3355 7.372 45.1208 8.002 44.6915 8.478C44.2622 8.94467 43.7395 9.22933 43.1235 9.332L45.4055 13ZM42.0595 8.072C42.5262 8.072 42.9088 7.93667 43.2075 7.666C43.5062 7.39533 43.6555 7.036 43.6555 6.588C43.6555 6.14 43.5062 5.78067 43.2075 5.51C42.9088 5.23933 42.5262 5.104 42.0595 5.104H39.8195V8.072H42.0595ZM52.9645 13H51.4945V12.104C50.8598 12.8133 50.0618 13.168 49.1005 13.168C47.6538 13.168 46.9305 12.454 46.9305 11.026V6.238H48.4005V10.494C48.4005 10.9887 48.5172 11.3433 48.7505 11.558C48.9838 11.7633 49.3198 11.866 49.7585 11.866C50.1132 11.866 50.4445 11.782 50.7525 11.614C51.0605 11.446 51.3078 11.236 51.4945 10.984V6.238H52.9645V13ZM57.1839 13.168C55.9705 13.168 55.0045 12.818 54.2859 12.118L54.9579 11.054C55.2099 11.3153 55.5505 11.5393 55.9799 11.726C56.4092 11.9127 56.8339 12.006 57.2539 12.006C57.6832 12.006 58.0099 11.922 58.2339 11.754C58.4672 11.586 58.5839 11.3667 58.5839 11.096C58.5839 10.8533 58.4439 10.6667 58.1639 10.536C57.8839 10.396 57.5432 10.2887 57.1419 10.214C56.7405 10.13 56.3392 10.032 55.9379 9.92C55.5365 9.79867 55.1959 9.58867 54.9159 9.29C54.6359 8.99133 54.4959 8.604 54.4959 8.128C54.4959 7.54933 54.7339 7.064 55.2099 6.672C55.6859 6.27067 56.3345 6.07 57.1559 6.07C58.1919 6.07 59.0692 6.38733 59.7879 7.022L59.1719 8.058C58.9572 7.81533 58.6725 7.61933 58.3179 7.47C57.9632 7.32067 57.5805 7.246 57.1699 7.246C56.7872 7.246 56.4792 7.32533 56.2459 7.484C56.0219 7.63333 55.9099 7.82933 55.9099 8.072C55.9099 8.25867 56.0079 8.41267 56.2039 8.534C56.4092 8.646 56.6612 8.73 56.9599 8.786C57.2679 8.842 57.5992 8.92133 57.9539 9.024C58.3085 9.11733 58.6352 9.22933 58.9339 9.36C59.2419 9.49067 59.4939 9.70533 59.6899 10.004C59.8952 10.2933 59.9979 10.648 59.9979 11.068C59.9979 11.684 59.7505 12.188 59.2559 12.58C58.7612 12.972 58.0705 13.168 57.1839 13.168ZM63.7874 13.168C62.5741 13.168 61.6081 12.818 60.8894 12.118L61.5614 11.054C61.8134 11.3153 62.1541 11.5393 62.5834 11.726C63.0127 11.9127 63.4374 12.006 63.8574 12.006C64.2867 12.006 64.6134 11.922 64.8374 11.754C65.0707 11.586 65.1874 11.3667 65.1874 11.096C65.1874 10.8533 65.0474 10.6667 64.7674 10.536C64.4874 10.396 64.1467 10.2887 63.7454 10.214C63.3441 10.13 62.9427 10.032 62.5414 9.92C62.1401 9.79867 61.7994 9.58867 61.5194 9.29C61.2394 8.99133 61.0994 8.604 61.0994 8.128C61.0994 7.54933 61.3374 7.064 61.8134 6.672C62.2894 6.27067 62.9381 6.07 63.7594 6.07C64.7954 6.07 65.6727 6.38733 66.3914 7.022L65.7754 8.058C65.5607 7.81533 65.2761 7.61933 64.9214 7.47C64.5667 7.32067 64.1841 7.246 63.7734 7.246C63.3907 7.246 63.0827 7.32533 62.8494 7.484C62.6254 7.63333 62.5134 7.82933 62.5134 8.072C62.5134 8.25867 62.6114 8.41267 62.8074 8.534C63.0127 8.646 63.2647 8.73 63.5634 8.786C63.8714 8.842 64.2027 8.92133 64.5574 9.024C64.9121 9.11733 65.2387 9.22933 65.5374 9.36C65.8454 9.49067 66.0974 9.70533 66.2934 10.004C66.4987 10.2933 66.6014 10.648 66.6014 11.068C66.6014 11.684 66.3541 12.188 65.8594 12.58C65.3647 12.972 64.6741 13.168 63.7874 13.168ZM68.8089 5.412C68.5662 5.412 68.3516 5.32333 68.1649 5.146C67.9876 4.96867 67.8989 4.754 67.8989 4.502C67.8989 4.25 67.9876 4.03533 68.1649 3.858C68.3516 3.68067 68.5662 3.592 68.8089 3.592C69.0609 3.592 69.2756 3.68067 69.4529 3.858C69.6302 4.03533 69.7189 4.25 69.7189 4.502C69.7189 4.754 69.6302 4.96867 69.4529 5.146C69.2756 5.32333 69.0609 5.412 68.8089 5.412ZM69.5509 13H68.0809V6.238H69.5509V13ZM77.0579 13H75.5879V12.272C75.0652 12.8693 74.3372 13.168 73.4039 13.168C72.7879 13.168 72.2419 12.972 71.7659 12.58C71.2899 12.1787 71.0519 11.628 71.0519 10.928C71.0519 10.2093 71.2852 9.66333 71.7519 9.29C72.2279 8.91667 72.7785 8.73 73.4039 8.73C74.3652 8.73 75.0932 9.01933 75.5879 9.598V8.59C75.5879 8.198 75.4432 7.89 75.1539 7.666C74.8645 7.442 74.4819 7.33 74.0059 7.33C73.2499 7.33 72.5825 7.61467 72.0039 8.184L71.4019 7.162C72.1672 6.434 73.1145 6.07 74.2439 6.07C75.0745 6.07 75.7512 6.266 76.2739 6.658C76.7965 7.05 77.0579 7.67067 77.0579 8.52V13ZM73.9779 12.16C74.7152 12.16 75.2519 11.9267 75.5879 11.46V10.438C75.2519 9.97133 74.7152 9.738 73.9779 9.738C73.5579 9.738 73.2125 9.85 72.9419 10.074C72.6712 10.298 72.5359 10.592 72.5359 10.956C72.5359 11.32 72.6712 11.614 72.9419 11.838C73.2125 12.0527 73.5579 12.16 73.9779 12.16ZM84.9977 13H83.5277V8.772C83.5277 7.83867 83.0751 7.372 82.1697 7.372C81.8151 7.372 81.4837 7.46067 81.1757 7.638C80.8677 7.81533 80.6204 8.03 80.4337 8.282V13H78.9637V6.238H80.4337V7.162C80.6857 6.86333 81.0217 6.60667 81.4417 6.392C81.8617 6.17733 82.3191 6.07 82.8137 6.07C83.5324 6.07 84.0737 6.25667 84.4377 6.63C84.8111 7.00333 84.9977 7.54 84.9977 8.24V13ZM95.3491 13H93.4871L92.8011 11.208H88.5171L87.8311 13H85.9691L89.6371 3.662H91.6811L95.3491 13ZM92.3391 9.766L90.6591 5.314L88.9791 9.766H92.3391ZM99.071 15.744C97.923 15.744 96.9803 15.408 96.243 14.736L96.929 13.672C97.433 14.2507 98.147 14.54 99.071 14.54C99.631 14.54 100.102 14.3907 100.485 14.092C100.877 13.8027 101.073 13.3407 101.073 12.706V11.894C100.494 12.6407 99.771 13.014 98.903 13.014C98.0163 13.014 97.293 12.706 96.733 12.09C96.1823 11.474 95.907 10.6247 95.907 9.542C95.907 8.46867 96.1823 7.624 96.733 7.008C97.293 6.38267 98.0163 6.07 98.903 6.07C99.7897 6.07 100.513 6.43867 101.073 7.176V6.238H102.543V12.65C102.543 13.2287 102.44 13.728 102.235 14.148C102.039 14.5773 101.768 14.8993 101.423 15.114C101.078 15.338 100.709 15.4967 100.317 15.59C99.9343 15.6927 99.519 15.744 99.071 15.744ZM99.337 11.712C99.673 11.712 100.004 11.6233 100.331 11.446C100.658 11.2687 100.905 11.054 101.073 10.802V8.282C100.905 8.03 100.658 7.81533 100.331 7.638C100.004 7.46067 99.673 7.372 99.337 7.372C98.7583 7.372 98.2963 7.57267 97.951 7.974C97.6057 8.366 97.433 8.88867 97.433 9.542C97.433 10.1953 97.6057 10.7227 97.951 11.124C98.2963 11.516 98.7583 11.712 99.337 11.712ZM107.192 15.744C106.044 15.744 105.101 15.408 104.364 14.736L105.05 13.672C105.554 14.2507 106.268 14.54 107.192 14.54C107.752 14.54 108.223 14.3907 108.606 14.092C108.998 13.8027 109.194 13.3407 109.194 12.706V11.894C108.615 12.6407 107.892 13.014 107.024 13.014C106.137 13.014 105.414 12.706 104.854 12.09C104.303 11.474 104.028 10.6247 104.028 9.542C104.028 8.46867 104.303 7.624 104.854 7.008C105.414 6.38267 106.137 6.07 107.024 6.07C107.911 6.07 108.634 6.43867 109.194 7.176V6.238H110.664V12.65C110.664 13.2287 110.561 13.728 110.356 14.148C110.16 14.5773 109.889 14.8993 109.544 15.114C109.199 15.338 108.83 15.4967 108.438 15.59C108.055 15.6927 107.64 15.744 107.192 15.744ZM107.458 11.712C107.794 11.712 108.125 11.6233 108.452 11.446C108.779 11.2687 109.026 11.054 109.194 10.802V8.282C109.026 8.03 108.779 7.81533 108.452 7.638C108.125 7.46067 107.794 7.372 107.458 7.372C106.879 7.372 106.417 7.57267 106.072 7.974C105.727 8.366 105.554 8.88867 105.554 9.542C105.554 10.1953 105.727 10.7227 106.072 11.124C106.417 11.516 106.879 11.712 107.458 11.712ZM114.039 13H112.569V6.238H114.039V7.232C114.301 6.896 114.627 6.62067 115.019 6.406C115.411 6.19133 115.817 6.084 116.237 6.084V7.54C116.107 7.512 115.953 7.498 115.775 7.498C115.467 7.498 115.136 7.59133 114.781 7.778C114.436 7.95533 114.189 8.16067 114.039 8.394V13ZM120.545 13.168C119.518 13.168 118.669 12.8413 117.997 12.188C117.334 11.5253 117.003 10.6667 117.003 9.612C117.003 8.62267 117.325 7.78733 117.969 7.106C118.622 6.41533 119.443 6.07 120.433 6.07C121.431 6.07 122.234 6.41533 122.841 7.106C123.457 7.79667 123.765 8.67867 123.765 9.752V10.102H118.543C118.599 10.634 118.818 11.0773 119.201 11.432C119.583 11.7867 120.083 11.964 120.699 11.964C121.044 11.964 121.389 11.8987 121.735 11.768C122.089 11.6373 122.383 11.4553 122.617 11.222L123.289 12.188C122.607 12.8413 121.693 13.168 120.545 13.168ZM122.337 9.066C122.318 8.59933 122.145 8.184 121.819 7.82C121.501 7.456 121.039 7.274 120.433 7.274C119.854 7.274 119.401 7.456 119.075 7.82C118.748 8.17467 118.566 8.59 118.529 9.066H122.337ZM127.526 13.168C126.312 13.168 125.346 12.818 124.628 12.118L125.3 11.054C125.552 11.3153 125.892 11.5393 126.322 11.726C126.751 11.9127 127.176 12.006 127.596 12.006C128.025 12.006 128.352 11.922 128.576 11.754C128.809 11.586 128.926 11.3667 128.926 11.096C128.926 10.8533 128.786 10.6667 128.506 10.536C128.226 10.396 127.885 10.2887 127.484 10.214C127.082 10.13 126.681 10.032 126.28 9.92C125.878 9.79867 125.538 9.58867 125.258 9.29C124.978 8.99133 124.838 8.604 124.838 8.128C124.838 7.54933 125.076 7.064 125.552 6.672C126.028 6.27067 126.676 6.07 127.498 6.07C128.534 6.07 129.411 6.38733 130.13 7.022L129.514 8.058C129.299 7.81533 129.014 7.61933 128.66 7.47C128.305 7.32067 127.922 7.246 127.512 7.246C127.129 7.246 126.821 7.32533 126.588 7.484C126.364 7.63333 126.252 7.82933 126.252 8.072C126.252 8.25867 126.35 8.41267 126.546 8.534C126.751 8.646 127.003 8.73 127.302 8.786C127.61 8.842 127.941 8.92133 128.296 9.024C128.65 9.11733 128.977 9.22933 129.276 9.36C129.584 9.49067 129.836 9.70533 130.032 10.004C130.237 10.2933 130.34 10.648 130.34 11.068C130.34 11.684 130.092 12.188 129.598 12.58C129.103 12.972 128.412 13.168 127.526 13.168ZM134.129 13.168C132.916 13.168 131.95 12.818 131.231 12.118L131.903 11.054C132.155 11.3153 132.496 11.5393 132.925 11.726C133.355 11.9127 133.779 12.006 134.199 12.006C134.629 12.006 134.955 11.922 135.179 11.754C135.413 11.586 135.529 11.3667 135.529 11.096C135.529 10.8533 135.389 10.6667 135.109 10.536C134.829 10.396 134.489 10.2887 134.087 10.214C133.686 10.13 133.285 10.032 132.883 9.92C132.482 9.79867 132.141 9.58867 131.861 9.29C131.581 8.99133 131.441 8.604 131.441 8.128C131.441 7.54933 131.679 7.064 132.155 6.672C132.631 6.27067 133.28 6.07 134.101 6.07C135.137 6.07 136.015 6.38733 136.733 7.022L136.117 8.058C135.903 7.81533 135.618 7.61933 135.263 7.47C134.909 7.32067 134.526 7.246 134.115 7.246C133.733 7.246 133.425 7.32533 133.191 7.484C132.967 7.63333 132.855 7.82933 132.855 8.072C132.855 8.25867 132.953 8.41267 133.149 8.534C133.355 8.646 133.607 8.73 133.905 8.786C134.213 8.842 134.545 8.92133 134.899 9.024C135.254 9.11733 135.581 9.22933 135.879 9.36C136.187 9.49067 136.439 9.70533 136.635 10.004C136.841 10.2933 136.943 10.648 136.943 11.068C136.943 11.684 136.696 12.188 136.201 12.58C135.707 12.972 135.016 13.168 134.129 13.168ZM139.151 5.412C138.908 5.412 138.693 5.32333 138.507 5.146C138.329 4.96867 138.241 4.754 138.241 4.502C138.241 4.25 138.329 4.03533 138.507 3.858C138.693 3.68067 138.908 3.592 139.151 3.592C139.403 3.592 139.617 3.68067 139.795 3.858C139.972 4.03533 140.061 4.25 140.061 4.502C140.061 4.754 139.972 4.96867 139.795 5.146C139.617 5.32333 139.403 5.412 139.151 5.412ZM139.893 13H138.423V6.238H139.893V13ZM144.852 13.168C143.806 13.168 142.966 12.8273 142.332 12.146C141.697 11.4553 141.38 10.6107 141.38 9.612C141.38 8.61333 141.697 7.77333 142.332 7.092C142.966 6.41067 143.806 6.07 144.852 6.07C145.906 6.07 146.751 6.41067 147.386 7.092C148.02 7.77333 148.338 8.61333 148.338 9.612C148.338 10.62 148.02 11.4647 147.386 12.146C146.751 12.8273 145.906 13.168 144.852 13.168ZM144.852 11.866C145.458 11.866 145.934 11.6513 146.28 11.222C146.634 10.7833 146.812 10.2467 146.812 9.612C146.812 8.98667 146.634 8.45933 146.28 8.03C145.934 7.59133 145.458 7.372 144.852 7.372C144.254 7.372 143.778 7.59133 143.424 8.03C143.078 8.45933 142.906 8.98667 142.906 9.612C142.906 10.2467 143.078 10.7833 143.424 11.222C143.778 11.6513 144.254 11.866 144.852 11.866ZM155.859 13H154.389V8.772C154.389 7.83867 153.936 7.372 153.031 7.372C152.676 7.372 152.345 7.46067 152.037 7.638C151.729 7.81533 151.482 8.03 151.295 8.282V13H149.825V6.238H151.295V7.162C151.547 6.86333 151.883 6.60667 152.303 6.392C152.723 6.17733 153.18 6.07 153.675 6.07C154.394 6.07 154.935 6.25667 155.299 6.63C155.672 7.00333 155.859 7.54 155.859 8.24V13Z" fill="white"/>
</svg>
