<svg width="563" height="134" viewBox="0 0 563 134" fill="none" xmlns="http://www.w3.org/2000/svg">
<rect width="449" height="49" fill="#911E00"/>
<path d="M12.88 37H9.68L12.04 30.04H7.96L5.64 37H2.44L4.76 30.04H0.76L1.64 27.28H5.72L8.08 20.08H4L4.84 17.36H9.04L11.36 10.32H14.56L12.24 17.36H16.28L18.6 10.32H21.8L19.44 17.36H23.48L22.68 20.08H18.52L16.12 27.28H20.32L19.48 30.04H15.2L12.88 37ZM12.92 27.28L15.32 20.08H11.28L8.92 27.28H12.92ZM36.2178 37.48C31.6311 37.48 28.0178 36.0667 25.3778 33.24L27.9778 29.64C30.2711 32.0933 33.0845 33.32 36.4178 33.32C38.2045 33.32 39.5378 32.96 40.4178 32.24C41.3245 31.52 41.7778 30.6667 41.7778 29.68C41.7778 28.6667 41.2445 27.8667 40.1778 27.28C39.1111 26.6667 37.8178 26.1867 36.2978 25.84C34.7778 25.4933 33.2445 25.08 31.6978 24.6C30.1778 24.12 28.8845 23.3067 27.8178 22.16C26.7511 21.0133 26.2178 19.5333 26.2178 17.72C26.2178 15.48 27.1111 13.6267 28.8978 12.16C30.7111 10.6667 33.0578 9.92 35.9378 9.92C40.0445 9.92 43.3778 11.16 45.9378 13.64L43.2578 17.12C41.2311 15.0933 38.6578 14.08 35.5378 14.08C34.1511 14.08 33.0445 14.3867 32.2178 15C31.4178 15.5867 31.0178 16.3867 31.0178 17.4C31.0178 18.0667 31.2978 18.6267 31.8578 19.08C32.4445 19.5333 33.1911 19.9067 34.0978 20.2C35.0045 20.4667 36.0045 20.7333 37.0978 21C38.2178 21.2667 39.3245 21.6 40.4178 22C41.5378 22.3733 42.5511 22.84 43.4578 23.4C44.3645 23.96 45.0978 24.7333 45.6578 25.72C46.2445 26.7067 46.5378 27.88 46.5378 29.24C46.5378 31.64 45.6711 33.6133 43.9378 35.16C42.2045 36.7067 39.6311 37.48 36.2178 37.48ZM55.9419 37.48C54.3152 37.48 53.0752 37.0533 52.2219 36.2C51.3952 35.3467 50.9819 34.12 50.9819 32.52V21.36H47.7819V17.68H50.9819V12.4H55.1819V17.68H59.1019V21.36H55.1819V31.48C55.1819 32.1733 55.3419 32.7333 55.6619 33.16C55.9819 33.56 56.4352 33.76 57.0219 33.76C57.8752 33.76 58.5019 33.5333 58.9019 33.08L59.9019 36.24C59.0219 37.0667 57.7019 37.48 55.9419 37.48ZM71.6353 37.48C68.6486 37.48 66.2486 36.5067 64.4353 34.56C62.622 32.5867 61.7153 30.1733 61.7153 27.32C61.7153 24.4667 62.622 22.0667 64.4353 20.12C66.2486 18.1733 68.6486 17.2 71.6353 17.2C74.6486 17.2 77.062 18.1733 78.8753 20.12C80.6886 22.0667 81.5953 24.4667 81.5953 27.32C81.5953 30.2 80.6886 32.6133 78.8753 34.56C77.062 36.5067 74.6486 37.48 71.6353 37.48ZM71.6353 33.76C73.3686 33.76 74.7286 33.1467 75.7153 31.92C76.7286 30.6667 77.2353 29.1333 77.2353 27.32C77.2353 25.5333 76.7286 24.0267 75.7153 22.8C74.7286 21.5467 73.3686 20.92 71.6353 20.92C69.9286 20.92 68.5686 21.5467 67.5553 22.8C66.5686 24.0267 66.0753 25.5333 66.0753 27.32C66.0753 29.1333 66.5686 30.6667 67.5553 31.92C68.5686 33.1467 69.9286 33.76 71.6353 33.76ZM96.245 37.48C93.685 37.48 91.6183 36.4267 90.045 34.32V44.36H85.845V17.68H90.045V20.32C91.5917 18.24 93.6583 17.2 96.245 17.2C98.7783 17.2 100.832 18.1067 102.405 19.92C104.005 21.7333 104.805 24.2 104.805 27.32C104.805 30.44 104.005 32.92 102.405 34.76C100.832 36.5733 98.7783 37.48 96.245 37.48ZM95.005 33.76C96.6583 33.76 97.9783 33.16 98.965 31.96C99.9517 30.76 100.445 29.2133 100.445 27.32C100.445 25.4267 99.9517 23.8933 98.965 22.72C97.9783 21.52 96.6583 20.92 95.005 20.92C94.045 20.92 93.0983 21.1733 92.165 21.68C91.2317 22.1867 90.525 22.8 90.045 23.52V31.16C90.525 31.88 91.2317 32.4933 92.165 33C93.0983 33.5067 94.045 33.76 95.005 33.76ZM129.73 37H124.33L118.41 27.04H113.77V37H109.09V10.32H120.81C123.423 10.32 125.53 11.0933 127.13 12.64C128.73 14.1867 129.53 16.2 129.53 18.68C129.53 20.92 128.917 22.72 127.69 24.08C126.463 25.4133 124.97 26.2267 123.21 26.52L129.73 37ZM120.17 22.92C121.503 22.92 122.597 22.5333 123.45 21.76C124.303 20.9867 124.73 19.96 124.73 18.68C124.73 17.4 124.303 16.3733 123.45 15.6C122.597 14.8267 121.503 14.44 120.17 14.44H113.77V22.92H120.17ZM151.327 37H147.127V34.44C145.314 36.4667 143.034 37.48 140.287 37.48C136.154 37.48 134.087 35.44 134.087 31.36V17.68H138.287V29.84C138.287 31.2533 138.621 32.2667 139.287 32.88C139.954 33.4667 140.914 33.76 142.167 33.76C143.181 33.76 144.127 33.52 145.007 33.04C145.887 32.56 146.594 31.96 147.127 31.24V17.68H151.327V37ZM163.383 37.48C159.916 37.48 157.156 36.48 155.103 34.48L157.023 31.44C157.743 32.1867 158.716 32.8267 159.942 33.36C161.169 33.8933 162.383 34.16 163.583 34.16C164.809 34.16 165.743 33.92 166.383 33.44C167.049 32.96 167.383 32.3333 167.383 31.56C167.383 30.8667 166.983 30.3333 166.183 29.96C165.383 29.56 164.409 29.2533 163.263 29.04C162.116 28.8 160.969 28.52 159.823 28.2C158.676 27.8533 157.703 27.2533 156.903 26.4C156.103 25.5467 155.703 24.44 155.703 23.08C155.703 21.4267 156.383 20.04 157.743 18.92C159.103 17.7733 160.956 17.2 163.303 17.2C166.263 17.2 168.769 18.1067 170.823 19.92L169.063 22.88C168.449 22.1867 167.636 21.6267 166.623 21.2C165.609 20.7733 164.516 20.56 163.343 20.56C162.249 20.56 161.369 20.7867 160.703 21.24C160.063 21.6667 159.743 22.2267 159.743 22.92C159.743 23.4533 160.023 23.8933 160.583 24.24C161.169 24.56 161.889 24.8 162.743 24.96C163.623 25.12 164.569 25.3467 165.583 25.64C166.596 25.9067 167.529 26.2267 168.383 26.6C169.263 26.9733 169.983 27.5867 170.543 28.44C171.129 29.2667 171.423 30.28 171.423 31.48C171.423 33.24 170.716 34.68 169.303 35.8C167.889 36.92 165.916 37.48 163.383 37.48ZM182.25 37.48C178.783 37.48 176.023 36.48 173.97 34.48L175.89 31.44C176.61 32.1867 177.583 32.8267 178.81 33.36C180.036 33.8933 181.25 34.16 182.45 34.16C183.676 34.16 184.61 33.92 185.25 33.44C185.916 32.96 186.25 32.3333 186.25 31.56C186.25 30.8667 185.85 30.3333 185.05 29.96C184.25 29.56 183.276 29.2533 182.13 29.04C180.983 28.8 179.836 28.52 178.69 28.2C177.543 27.8533 176.57 27.2533 175.77 26.4C174.97 25.5467 174.57 24.44 174.57 23.08C174.57 21.4267 175.25 20.04 176.61 18.92C177.97 17.7733 179.823 17.2 182.17 17.2C185.13 17.2 187.636 18.1067 189.69 19.92L187.93 22.88C187.316 22.1867 186.503 21.6267 185.49 21.2C184.476 20.7733 183.383 20.56 182.21 20.56C181.116 20.56 180.236 20.7867 179.57 21.24C178.93 21.6667 178.61 22.2267 178.61 22.92C178.61 23.4533 178.89 23.8933 179.45 24.24C180.036 24.56 180.756 24.8 181.61 24.96C182.49 25.12 183.436 25.3467 184.45 25.64C185.463 25.9067 186.396 26.2267 187.25 26.6C188.13 26.9733 188.85 27.5867 189.41 28.44C189.996 29.2667 190.29 30.28 190.29 31.48C190.29 33.24 189.583 34.68 188.17 35.8C186.756 36.92 184.783 37.48 182.25 37.48ZM196.597 15.32C195.904 15.32 195.29 15.0667 194.757 14.56C194.25 14.0533 193.997 13.44 193.997 12.72C193.997 12 194.25 11.3867 194.757 10.88C195.29 10.3733 195.904 10.12 196.597 10.12C197.317 10.12 197.93 10.3733 198.437 10.88C198.944 11.3867 199.197 12 199.197 12.72C199.197 13.44 198.944 14.0533 198.437 14.56C197.93 15.0667 197.317 15.32 196.597 15.32ZM198.717 37H194.517V17.68H198.717V37ZM220.165 37H215.965V34.92C214.472 36.6267 212.392 37.48 209.725 37.48C207.965 37.48 206.405 36.92 205.045 35.8C203.685 34.6533 203.005 33.08 203.005 31.08C203.005 29.0267 203.672 27.4667 205.005 26.4C206.365 25.3333 207.939 24.8 209.725 24.8C212.472 24.8 214.552 25.6267 215.965 27.28V24.4C215.965 23.28 215.552 22.4 214.725 21.76C213.899 21.12 212.805 20.8 211.445 20.8C209.285 20.8 207.379 21.6133 205.725 23.24L204.005 20.32C206.192 18.24 208.899 17.2 212.125 17.2C214.499 17.2 216.432 17.76 217.925 18.88C219.419 20 220.165 21.7733 220.165 24.2V37ZM211.365 34.6C213.472 34.6 215.005 33.9333 215.965 32.6V29.68C215.005 28.3467 213.472 27.68 211.365 27.68C210.165 27.68 209.179 28 208.405 28.64C207.632 29.28 207.245 30.12 207.245 31.16C207.245 32.2 207.632 33.04 208.405 33.68C209.179 34.2933 210.165 34.6 211.365 34.6ZM242.851 37H238.651V24.92C238.651 22.2533 237.357 20.92 234.771 20.92C233.757 20.92 232.811 21.1733 231.931 21.68C231.051 22.1867 230.344 22.8 229.811 23.52V37H225.611V17.68H229.811V20.32C230.531 19.4667 231.491 18.7333 232.691 18.12C233.891 17.5067 235.197 17.2 236.611 17.2C238.664 17.2 240.211 17.7333 241.251 18.8C242.317 19.8667 242.851 21.4 242.851 23.4V37ZM272.426 37H267.106L265.146 31.88H252.906L250.946 37H245.626L256.106 10.32H261.946L272.426 37ZM263.826 27.76L259.026 15.04L254.226 27.76H263.826ZM283.06 44.84C279.78 44.84 277.087 43.88 274.98 41.96L276.94 38.92C278.38 40.5733 280.42 41.4 283.06 41.4C284.66 41.4 286.007 40.9733 287.1 40.12C288.22 39.2933 288.78 37.9733 288.78 36.16V33.84C287.127 35.9733 285.06 37.04 282.58 37.04C280.047 37.04 277.98 36.16 276.38 34.4C274.807 32.64 274.02 30.2133 274.02 27.12C274.02 24.0533 274.807 21.64 276.38 19.88C277.98 18.0933 280.047 17.2 282.58 17.2C285.113 17.2 287.18 18.2533 288.78 20.36V17.68H292.98V36C292.98 37.6533 292.687 39.08 292.1 40.28C291.54 41.5067 290.767 42.4267 289.78 43.04C288.793 43.68 287.74 44.1333 286.62 44.4C285.527 44.6933 284.34 44.84 283.06 44.84ZM283.82 33.32C284.78 33.32 285.727 33.0667 286.66 32.56C287.593 32.0533 288.3 31.44 288.78 30.72V23.52C288.3 22.8 287.593 22.1867 286.66 21.68C285.727 21.1733 284.78 20.92 283.82 20.92C282.167 20.92 280.847 21.4933 279.86 22.64C278.873 23.76 278.38 25.2533 278.38 27.12C278.38 28.9867 278.873 30.4933 279.86 31.64C280.847 32.76 282.167 33.32 283.82 33.32ZM306.263 44.84C302.983 44.84 300.29 43.88 298.183 41.96L300.143 38.92C301.583 40.5733 303.623 41.4 306.263 41.4C307.863 41.4 309.21 40.9733 310.303 40.12C311.423 39.2933 311.983 37.9733 311.983 36.16V33.84C310.33 35.9733 308.263 37.04 305.783 37.04C303.25 37.04 301.183 36.16 299.583 34.4C298.01 32.64 297.223 30.2133 297.223 27.12C297.223 24.0533 298.01 21.64 299.583 19.88C301.183 18.0933 303.25 17.2 305.783 17.2C308.316 17.2 310.383 18.2533 311.983 20.36V17.68H316.183V36C316.183 37.6533 315.89 39.08 315.303 40.28C314.743 41.5067 313.97 42.4267 312.983 43.04C311.996 43.68 310.943 44.1333 309.823 44.4C308.73 44.6933 307.543 44.84 306.263 44.84ZM307.023 33.32C307.983 33.32 308.93 33.0667 309.863 32.56C310.796 32.0533 311.503 31.44 311.983 30.72V23.52C311.503 22.8 310.796 22.1867 309.863 21.68C308.93 21.1733 307.983 20.92 307.023 20.92C305.37 20.92 304.05 21.4933 303.063 22.64C302.076 23.76 301.583 25.2533 301.583 27.12C301.583 28.9867 302.076 30.4933 303.063 31.64C304.05 32.76 305.37 33.32 307.023 33.32ZM325.826 37H321.626V17.68H325.826V20.52C326.573 19.56 327.506 18.7733 328.626 18.16C329.746 17.5467 330.906 17.24 332.106 17.24V21.4C331.733 21.32 331.293 21.28 330.786 21.28C329.906 21.28 328.96 21.5467 327.946 22.08C326.96 22.5867 326.253 23.1733 325.826 23.84V37ZM344.413 37.48C341.48 37.48 339.053 36.5467 337.133 34.68C335.24 32.7867 334.293 30.3333 334.293 27.32C334.293 24.4933 335.213 22.1067 337.053 20.16C338.92 18.1867 341.267 17.2 344.093 17.2C346.947 17.2 349.24 18.1867 350.973 20.16C352.733 22.1333 353.613 24.6533 353.613 27.72V28.72H338.693C338.853 30.24 339.48 31.5067 340.573 32.52C341.667 33.5333 343.093 34.04 344.853 34.04C345.84 34.04 346.827 33.8533 347.813 33.48C348.827 33.1067 349.667 32.5867 350.333 31.92L352.253 34.68C350.307 36.5467 347.693 37.48 344.413 37.48ZM349.533 25.76C349.48 24.4267 348.987 23.24 348.053 22.2C347.147 21.16 345.827 20.64 344.093 20.64C342.44 20.64 341.147 21.16 340.213 22.2C339.28 23.2133 338.76 24.4 338.653 25.76H349.533ZM364.359 37.48C360.892 37.48 358.132 36.48 356.079 34.48L357.999 31.44C358.719 32.1867 359.692 32.8267 360.919 33.36C362.146 33.8933 363.359 34.16 364.559 34.16C365.786 34.16 366.719 33.92 367.359 33.44C368.026 32.96 368.359 32.3333 368.359 31.56C368.359 30.8667 367.959 30.3333 367.159 29.96C366.359 29.56 365.386 29.2533 364.239 29.04C363.092 28.8 361.946 28.52 360.799 28.2C359.652 27.8533 358.679 27.2533 357.879 26.4C357.079 25.5467 356.679 24.44 356.679 23.08C356.679 21.4267 357.359 20.04 358.719 18.92C360.079 17.7733 361.932 17.2 364.279 17.2C367.239 17.2 369.746 18.1067 371.799 19.92L370.039 22.88C369.426 22.1867 368.612 21.6267 367.599 21.2C366.586 20.7733 365.492 20.56 364.319 20.56C363.226 20.56 362.346 20.7867 361.679 21.24C361.039 21.6667 360.719 22.2267 360.719 22.92C360.719 23.4533 360.999 23.8933 361.559 24.24C362.146 24.56 362.866 24.8 363.719 24.96C364.599 25.12 365.546 25.3467 366.559 25.64C367.572 25.9067 368.506 26.2267 369.359 26.6C370.239 26.9733 370.959 27.5867 371.519 28.44C372.106 29.2667 372.399 30.28 372.399 31.48C372.399 33.24 371.692 34.68 370.279 35.8C368.866 36.92 366.892 37.48 364.359 37.48ZM383.226 37.48C379.76 37.48 377 36.48 374.946 34.48L376.866 31.44C377.586 32.1867 378.56 32.8267 379.786 33.36C381.013 33.8933 382.226 34.16 383.426 34.16C384.653 34.16 385.586 33.92 386.226 33.44C386.893 32.96 387.226 32.3333 387.226 31.56C387.226 30.8667 386.826 30.3333 386.026 29.96C385.226 29.56 384.253 29.2533 383.106 29.04C381.96 28.8 380.813 28.52 379.666 28.2C378.52 27.8533 377.546 27.2533 376.746 26.4C375.946 25.5467 375.546 24.44 375.546 23.08C375.546 21.4267 376.226 20.04 377.586 18.92C378.946 17.7733 380.8 17.2 383.146 17.2C386.106 17.2 388.613 18.1067 390.666 19.92L388.906 22.88C388.293 22.1867 387.48 21.6267 386.466 21.2C385.453 20.7733 384.36 20.56 383.186 20.56C382.093 20.56 381.213 20.7867 380.546 21.24C379.906 21.6667 379.586 22.2267 379.586 22.92C379.586 23.4533 379.866 23.8933 380.426 24.24C381.013 24.56 381.733 24.8 382.586 24.96C383.466 25.12 384.413 25.3467 385.426 25.64C386.44 25.9067 387.373 26.2267 388.226 26.6C389.106 26.9733 389.826 27.5867 390.386 28.44C390.973 29.2667 391.266 30.28 391.266 31.48C391.266 33.24 390.56 34.68 389.146 35.8C387.733 36.92 385.76 37.48 383.226 37.48ZM397.573 15.32C396.88 15.32 396.267 15.0667 395.733 14.56C395.227 14.0533 394.973 13.44 394.973 12.72C394.973 12 395.227 11.3867 395.733 10.88C396.267 10.3733 396.88 10.12 397.573 10.12C398.293 10.12 398.907 10.3733 399.413 10.88C399.92 11.3867 400.173 12 400.173 12.72C400.173 13.44 399.92 14.0533 399.413 14.56C398.907 15.0667 398.293 15.32 397.573 15.32ZM399.693 37H395.493V17.68H399.693V37ZM413.862 37.48C410.875 37.48 408.475 36.5067 406.662 34.56C404.849 32.5867 403.942 30.1733 403.942 27.32C403.942 24.4667 404.849 22.0667 406.662 20.12C408.475 18.1733 410.875 17.2 413.862 17.2C416.875 17.2 419.289 18.1733 421.102 20.12C422.915 22.0667 423.822 24.4667 423.822 27.32C423.822 30.2 422.915 32.6133 421.102 34.56C419.289 36.5067 416.875 37.48 413.862 37.48ZM413.862 33.76C415.595 33.76 416.955 33.1467 417.942 31.92C418.955 30.6667 419.462 29.1333 419.462 27.32C419.462 25.5333 418.955 24.0267 417.942 22.8C416.955 21.5467 415.595 20.92 413.862 20.92C412.155 20.92 410.795 21.5467 409.782 22.8C408.795 24.0267 408.302 25.5333 408.302 27.32C408.302 29.1333 408.795 30.6667 409.782 31.92C410.795 33.1467 412.155 33.76 413.862 33.76ZM445.312 37H441.112V24.92C441.112 22.2533 439.818 20.92 437.232 20.92C436.218 20.92 435.272 21.1733 434.392 21.68C433.512 22.1867 432.805 22.8 432.272 23.52V37H428.072V17.68H432.272V20.32C432.992 19.4667 433.952 18.7333 435.152 18.12C436.352 17.5067 437.658 17.2 439.072 17.2C441.125 17.2 442.672 17.7333 443.712 18.8C444.778 19.8667 445.312 21.4 445.312 23.4V37Z" fill="white"/>
<path d="M17.57 113.84C10.5233 113.84 4.9 111.81 0.7 107.75L6.09 99.07C9.17 102.383 12.9733 104.04 17.5 104.04C19.1333 104.04 20.4167 103.667 21.35 102.92C22.33 102.173 22.82 101.217 22.82 100.05C22.82 99.0233 22.3067 98.1367 21.28 97.39C20.2533 96.5967 18.97 95.9667 17.43 95.5C15.89 94.9867 14.2333 94.3333 12.46 93.54C10.6867 92.7467 9.03 91.86 7.49 90.88C5.95 89.9 4.66667 88.4767 3.64 86.61C2.61333 84.6967 2.1 82.4567 2.1 79.89C2.1 75.9233 3.57 72.54 6.51 69.74C9.45 66.94 13.44 65.54 18.48 65.54C24.5 65.54 29.4933 67.3133 33.46 70.86L28.21 79.26C25.4567 76.6933 22.0733 75.41 18.06 75.41C16.66 75.41 15.5633 75.7367 14.77 76.39C14.0233 77.0433 13.65 77.9067 13.65 78.98C13.65 79.9133 14.1633 80.7533 15.19 81.5C16.2167 82.2467 17.4767 82.8767 18.97 83.39C20.51 83.9033 22.1667 84.58 23.94 85.42C25.76 86.26 27.4167 87.17 28.91 88.15C30.45 89.13 31.7333 90.5533 32.76 92.42C33.7867 94.2867 34.3 96.4567 34.3 98.93C34.3 103.457 32.8067 107.073 29.82 109.78C26.88 112.487 22.7967 113.84 17.57 113.84ZM57.802 113.84C52.1553 113.84 47.6753 112.3 44.362 109.22C41.0953 106.14 39.462 101.87 39.462 96.41V66.31H50.872V96.48C50.872 98.86 51.4553 100.703 52.622 102.01C53.8353 103.27 55.562 103.9 57.802 103.9C59.9953 103.9 61.6753 103.247 62.842 101.94C64.0553 100.633 64.662 98.8133 64.662 96.48V66.31H76.072V96.41C76.072 101.87 74.4153 106.14 71.102 109.22C67.8353 112.3 63.402 113.84 57.802 113.84ZM94.8254 113H83.4854V66.31H102.245C107.099 66.31 110.832 67.78 113.445 70.72C116.105 73.66 117.435 77.3233 117.435 81.71C117.435 86.05 116.105 89.69 113.445 92.63C110.832 95.5233 107.099 96.97 102.245 96.97H94.8254V113ZM100.845 87.1C102.385 87.1 103.622 86.61 104.555 85.63C105.489 84.65 105.955 83.32 105.955 81.64C105.955 79.96 105.489 78.63 104.555 77.65C103.622 76.67 102.385 76.18 100.845 76.18H94.8254V87.1H100.845ZM133.722 113H122.382V66.31H141.142C145.995 66.31 149.729 67.78 152.342 70.72C155.002 73.66 156.332 77.3233 156.332 81.71C156.332 86.05 155.002 89.69 152.342 92.63C149.729 95.5233 145.995 96.97 141.142 96.97H133.722V113ZM139.742 87.1C141.282 87.1 142.519 86.61 143.452 85.63C144.385 84.65 144.852 83.32 144.852 81.64C144.852 79.96 144.385 78.63 143.452 77.65C142.519 76.67 141.282 76.18 139.742 76.18H133.722V87.1H139.742ZM194.528 107.12C190.842 111.6 185.895 113.84 179.688 113.84C173.482 113.84 168.535 111.6 164.848 107.12C161.162 102.64 159.318 96.83 159.318 89.69C159.318 82.55 161.162 76.74 164.848 72.26C168.535 67.78 173.482 65.54 179.688 65.54C185.895 65.54 190.842 67.78 194.528 72.26C198.215 76.74 200.058 82.55 200.058 89.69C200.058 96.83 198.215 102.64 194.528 107.12ZM179.688 103.83C182.488 103.83 184.658 102.523 186.198 99.91C187.785 97.25 188.578 93.8433 188.578 89.69C188.578 85.49 187.785 82.0833 186.198 79.47C184.658 76.8567 182.488 75.55 179.688 75.55C176.935 75.55 174.765 76.8567 173.178 79.47C171.638 82.0833 170.868 85.49 170.868 89.69C170.868 93.8433 171.638 97.25 173.178 99.91C174.765 102.523 176.935 103.83 179.688 103.83ZM239.875 113H227.275L221.115 96.97H216.915V113H205.575V66.31H224.615C229.095 66.31 232.689 67.7567 235.395 70.65C238.149 73.4967 239.525 77.1133 239.525 81.5C239.525 85.0933 238.779 88.01 237.285 90.25C235.839 92.4433 234.065 94.0067 231.965 94.94L239.875 113ZM222.865 87.1C224.405 87.1 225.642 86.61 226.575 85.63C227.555 84.65 228.045 83.32 228.045 81.64C228.045 79.96 227.555 78.63 226.575 77.65C225.642 76.67 224.405 76.18 222.865 76.18H216.915V87.1H222.865ZM264.059 113H252.719V76.18H242.709V66.31H273.999V76.18H264.059V113Z" fill="white"/>
<path d="M311.494 54.342C311.494 54.3954 311.89 54.8219 312.682 55.6217C310.954 58.7675 310.018 60.4204 309.874 60.5803C308.507 61.9133 307.211 63.2996 305.987 64.7392C304.836 66.1788 303.468 68.0716 301.884 70.4176C300.301 72.7103 299.257 74.1765 298.753 74.8164C296.306 78.1754 292.958 83.1074 288.711 89.6123C285.976 93.7711 283.96 97.77 282.665 101.609C281.801 103.955 281.477 106.381 281.693 108.887C281.693 108.94 281.765 109.367 281.909 110.167C282.485 110.54 283.241 110.593 284.176 110.327C286.624 109.58 288.351 108.994 289.359 108.567C294.326 106.701 299.293 104.248 304.26 101.209C310.234 97.5834 315.993 93.6112 321.536 89.2924C332.549 80.7081 341.835 71.4573 349.394 61.54C350.041 60.7403 351.193 59.3273 352.849 57.3012C353.569 56.4481 354.72 56.1015 356.304 56.2615C358.464 56.5281 360.299 57.3279 361.811 58.6608C362.531 59.3007 362.783 59.9938 362.567 60.7403C361.631 63.3529 361.055 64.9258 360.839 65.459C359.687 68.1782 356.988 73.4034 352.741 81.1346C346.694 92.2782 342.051 101.636 338.812 109.207C335.861 116.085 333.665 121.843 332.225 126.482C332.153 126.855 332.046 127.255 331.902 127.682C331.83 128.162 331.722 128.641 331.578 129.121C331.506 129.601 331.398 130.001 331.254 130.321C331.038 131.067 330.822 131.707 330.606 132.24C330.462 132.507 330.318 132.72 330.174 132.88C330.102 133.04 329.958 133.174 329.742 133.28C329.598 133.44 329.238 133.68 328.662 134C327.439 133.627 326.539 132.827 325.963 131.601C325.459 130.374 325.423 128.695 325.855 126.562C326.863 120.804 328.806 114.219 331.686 106.808C332.046 105.848 334.853 99.023 340.108 86.3332C340.18 86.0666 340.324 85.64 340.54 85.0535C340.828 84.467 340.971 84.1205 340.971 84.0138C340.612 83.9072 340.288 84.0138 340 84.3337C339.928 84.3871 339.892 84.4137 339.892 84.4137C339.172 85.0535 338.308 85.8267 337.3 86.7331C336.293 87.6395 335.393 88.4393 334.601 89.1324C333.881 89.7722 333.017 90.5187 332.01 91.3718C331.074 92.1716 330.21 92.918 329.418 93.6112C325.531 96.757 321.104 100.009 316.137 103.368C311.026 106.781 306.131 109.553 301.452 111.686C298.573 112.966 295.874 113.926 293.354 114.565C290.619 115.312 287.164 115.605 282.989 115.445C281.405 115.392 279.317 114.725 276.726 113.446C272.983 111.58 271.075 108.94 271.003 105.528C270.931 102.275 272.047 98.3032 274.351 93.6112C276.006 90.2521 278.634 86.0666 282.233 81.0546C286.336 75.4562 290.547 70.1243 294.866 65.0591C297.169 62.3931 300.265 59.1674 304.152 55.3817C304.44 55.1151 304.872 54.7686 305.448 54.342C307.463 52.8491 309.479 52.8491 311.494 54.342Z" fill="#FCC81F"/>
<path d="M389.524 117.205C389.524 117.205 389.92 117.471 390.712 118.004C390.064 118.644 389.056 118.831 387.689 118.564C385.817 118.244 384.089 117.498 382.506 116.325C381.066 115.312 379.95 114.405 379.159 113.606C378.151 112.539 374.696 108.94 368.793 102.809C368.721 102.755 368.181 102.169 367.173 101.049C366.094 102.009 365.014 103.129 363.934 104.408C362.926 105.688 362.134 106.781 361.559 107.687C361.055 108.594 360.335 109.847 359.399 111.446C358.463 113.046 357.779 114.192 357.347 114.885C356.916 114.992 356.304 115.125 355.512 115.285C354.792 115.392 354.216 115.472 353.784 115.525C353.352 115.312 352.777 115.045 352.057 114.725C351.265 114.352 350.797 114.139 350.653 114.086C350.437 113.659 350.509 112.992 350.869 112.086C353.532 104.995 357.563 96.3837 362.962 86.2532C363.466 85.3468 366.705 78.9219 372.68 66.9785C377.071 58.181 379.483 53.329 379.914 52.4226C380.418 51.3562 381.102 50.2632 381.966 49.1435C382.974 47.9171 384.413 47.6772 386.285 48.4237C388.085 49.1168 388.516 50.0765 387.581 51.3029C387.077 51.996 386.393 53.5423 385.529 55.9416C381.786 66.392 378.295 74.9763 375.056 81.6945C374.912 82.0677 374.624 82.6809 374.192 83.534C373.76 84.3337 373.472 84.9469 373.328 85.3734C373.256 85.3734 373.112 85.8 372.896 86.6531C373.256 86.5465 373.58 86.4132 373.868 86.2532C374.228 86.0932 374.588 85.9066 374.948 85.6934C375.379 85.4268 375.667 85.2668 375.811 85.2135C377.683 84.2004 378.871 83.5873 379.375 83.374C382.614 82.3076 385.349 82.9208 387.581 85.2135C387.653 86.0133 387.077 86.813 385.853 87.6128C383.91 88.9458 381.786 90.3321 379.483 91.7717C379.339 91.8783 377.935 92.6781 375.271 94.171C374.624 94.5442 374.264 94.7309 374.192 94.7309C372.896 95.584 372.14 96.3038 371.924 96.8903C371.78 97.4234 372.14 98.2765 373.004 99.4496C373.436 100.036 374.012 100.729 374.732 101.529C377.179 104.408 380.418 108.114 384.449 112.646C384.665 112.966 384.989 113.392 385.421 113.926C385.925 114.405 386.249 114.725 386.393 114.885C387.329 115.952 388.372 116.725 389.524 117.205Z" fill="#FCC81F"/>
<path d="M421.92 96.4904C422.352 96.7036 422.784 97.1035 423.216 97.69C422.568 98.1166 421.74 98.1966 420.733 97.93C419.941 97.7167 418.933 97.3968 417.709 96.9702C417.493 96.8636 416.486 96.4104 414.686 95.6106C413.822 95.8239 412.778 96.437 411.555 97.4501C409.395 99.2629 406.804 102.115 403.78 106.008C402.269 107.981 400.793 109.793 399.353 111.446C399.353 111.553 398.742 112.193 397.518 113.366H394.171C392.227 112.513 391.111 111.846 390.823 111.366C390.535 110.833 390.607 109.793 391.039 108.247C391.399 107.181 392.191 105.021 393.415 101.769C394.854 97.8767 396.042 94.7309 396.978 92.3315C397.41 91.1585 397.878 90.1988 398.382 89.4523C399.029 88.4393 400.145 88.0927 401.729 88.4126C403.385 88.6792 404.392 89.2924 404.752 90.2521C404.536 90.9986 404.176 92.0649 403.672 93.4512C403.169 94.8375 402.809 95.8505 402.593 96.4904C402.665 96.4904 402.737 96.517 402.809 96.5704C402.881 96.6237 402.917 96.6503 402.917 96.6503C403.061 96.597 403.205 96.517 403.348 96.4104C403.492 96.2504 403.636 96.1171 403.78 96.0105C403.924 95.9039 404.032 95.7972 404.104 95.6906C405.544 94.5709 406.3 93.9844 406.372 93.9311C407.74 92.918 409.107 92.3582 410.475 92.2515C411.843 92.0916 413.39 92.3582 415.118 93.0513C415.118 93.0513 415.802 93.3979 417.169 94.091C419.545 95.3174 421.128 96.1171 421.92 96.4904Z" fill="#FCC81F"/>
<path d="M453.335 116.645C453.407 116.645 453.551 116.885 453.767 117.365C452.903 117.685 451.86 117.578 450.636 117.045C448.332 116.032 446.713 114.592 445.777 112.726C444.985 111.126 444.337 108.994 443.833 106.328C443.833 106.114 443.761 105.608 443.618 104.808C443.402 104.701 443.186 104.701 442.97 104.808C442.826 104.861 442.718 104.915 442.646 104.968C442.646 104.968 442.574 105.048 442.43 105.208C442.358 105.315 442.286 105.368 442.214 105.368C438.183 109.154 436.131 111.073 436.059 111.126C434.476 112.513 432.928 113.552 431.416 114.245C429.689 115.045 427.925 115.312 426.125 115.045C424.398 114.779 422.922 114.032 421.698 112.806C421.051 112.219 420.835 111.446 421.051 110.486C421.411 108.994 421.77 107.874 422.13 107.127C424.794 101.422 428.501 96.3038 433.252 91.7717C434.188 90.8653 436.203 89.2657 439.298 86.973C440.09 86.3865 440.99 85.9333 441.998 85.6134C443.366 85.1335 444.589 85.1868 445.669 85.7733C446.749 86.3598 447.253 87.2396 447.181 88.4126C447.181 88.4126 447.109 88.7059 446.965 89.2924C446.533 89.399 446.173 89.399 445.885 89.2924C445.597 89.1857 445.309 89.0258 445.021 88.8125C444.805 88.5459 444.589 88.3859 444.373 88.3326C441.782 90.3587 438.831 93.6645 435.519 98.2499C432.208 102.835 430.516 105.981 430.444 107.687C433.54 105.181 436.023 102.755 437.895 100.409C438.183 100.089 440.054 97.5034 443.51 92.6514C444.877 92.3848 446.281 92.4648 447.721 92.8914C449.232 93.3179 450.276 93.9844 450.852 94.8908C451.212 95.3707 451.356 95.9572 451.284 96.6503C451.284 97.2368 451.176 98.0899 450.96 99.2096C450.816 100.276 450.744 101.049 450.744 101.529C450.312 105.635 450.492 109.367 451.284 112.726C451.644 114.325 452.328 115.632 453.335 116.645Z" fill="#2196F3"/>
<path d="M475.052 110.247C476.132 109.82 477.031 109.633 477.751 109.687C477.823 110.273 477.859 110.566 477.859 110.566C477.859 110.78 477.751 111.046 477.535 111.366C476.6 112.699 474.944 113.926 472.568 115.045C470.193 116.112 467.782 116.485 465.334 116.165C461.303 115.685 458.568 113.979 457.128 111.046C456.408 109.5 456.264 107.741 456.696 105.768C457.2 103.528 458.388 100.623 460.259 97.0502C462.203 93.3712 464.146 90.3854 466.09 88.0927C466.738 87.3996 467.17 86.9463 467.386 86.7331C467.962 86.1999 468.681 85.88 469.545 85.7733C470.409 85.6667 471.237 85.8 472.029 86.1732C472.676 86.4931 473.072 86.893 473.216 87.3729C473.432 87.7994 473.324 88.226 472.892 88.6525C472.604 88.9725 472.317 89.3457 472.029 89.7722C471.813 90.1455 471.633 90.492 471.489 90.8119C471.345 91.0785 471.165 91.4518 470.949 91.9316C470.733 92.3582 470.553 92.7048 470.409 92.9713C468.105 97.5034 466.234 101.902 464.794 106.168C464.002 108.3 463.678 110.113 463.822 111.606C463.894 112.673 464.29 113.392 465.01 113.766C466.378 113.819 468.069 113.366 470.085 112.406C472.173 111.446 473.828 110.726 475.052 110.247ZM484.986 70.3376C485.634 70.4442 486.065 70.6842 486.281 71.0574C486.569 71.4306 486.533 71.8039 486.173 72.1771C485.957 72.3904 485.526 72.7103 484.878 73.1368C484.23 73.5101 483.33 74.0432 482.178 74.7364C481.099 75.4295 480.307 75.9361 479.803 76.256C478.723 76.8958 478.039 77.349 477.751 77.6156C477.535 77.7756 476.636 78.5753 475.052 80.0149C475.268 80.7081 475.376 81.0813 475.376 81.1346C475.376 81.1346 475.34 81.2146 475.268 81.3746C473.9 81.5345 472.64 81.4279 471.489 81.0546C470.337 80.6281 469.473 79.9883 468.897 79.1352C468.465 78.4954 468.501 77.9355 469.005 77.4556C469.437 76.9758 469.905 76.5492 470.409 76.176C473.072 74.3098 476.528 72.5503 480.775 70.8975C482.07 70.3643 483.474 70.1777 484.986 70.3376Z" fill="#2196F3"/>
<path d="M515.02 112.886C516.171 113.312 516.747 113.926 516.747 114.725C515.668 114.992 515.092 115.125 515.02 115.125C512.572 115.179 510.233 114.672 508.001 113.606C504.258 111.846 501.343 109.66 499.255 107.047C498.535 106.194 497.96 105.261 497.528 104.248C497.456 104.088 497.132 102.969 496.556 100.889C494.18 102.809 492.921 103.822 492.777 103.928C492.057 104.568 490.977 105.528 489.538 106.808C488.17 108.034 487.126 108.967 486.406 109.607C485.686 110.193 484.751 110.913 483.599 111.766C480.935 113.686 478.308 113.712 475.717 111.846C475.717 111.793 475.357 111.5 474.637 110.966C474.565 110.273 474.853 109.26 475.501 107.927C476.077 106.594 476.724 105.155 477.444 103.608C478.164 102.009 478.92 100.329 479.712 98.5698C480.576 96.8103 481.295 95.3707 481.871 94.251C482.015 93.8244 482.195 93.3979 482.411 92.9713C482.627 92.4915 482.843 91.9849 483.059 91.4518C483.347 90.9186 483.563 90.492 483.707 90.1721C484.139 89.2124 484.535 88.6259 484.895 88.4126C485.974 88.4126 486.802 88.5192 487.378 88.7325C488.026 88.9458 488.494 89.2657 488.782 89.6923C489.07 90.1188 489.25 90.732 489.322 91.5317C489.322 92.3315 489.358 93.3446 489.43 94.5709C489.43 94.5709 489.394 94.7309 489.322 95.0508C489.178 95.1041 488.926 95.2107 488.566 95.3707C488.278 95.4773 488.062 95.584 487.918 95.6906C487.774 96.0105 487.558 96.4904 487.27 97.1302C487.054 97.7167 486.838 98.3032 486.622 98.8897C486.406 99.4762 486.154 100.089 485.866 100.729C486.874 100.089 487.414 99.7428 487.486 99.6895C487.99 99.2629 488.602 98.7831 489.322 98.2499C490.041 97.7167 490.689 97.2102 491.265 96.7303C491.841 96.2504 492.453 95.7706 493.101 95.2907C493.749 94.8108 494.396 94.331 495.044 93.8511C495.692 93.3179 496.304 92.8114 496.88 92.3315C498.895 90.8386 501.055 90.492 503.358 91.2918C506.382 92.4115 507.785 93.9311 507.569 95.8506C507.21 99.2096 506.922 101.636 506.706 103.129C506.418 104.675 506.454 106.088 506.814 107.367C507.605 110.033 509.657 111.713 512.968 112.406C513.976 112.566 514.66 112.726 515.02 112.886Z" fill="#2196F3"/>
<path d="M562.27 93.9311C563.206 94.6242 563.242 95.424 562.378 96.3304C561.514 97.2368 560.614 98.0099 559.679 98.6498C556.583 100.942 554.136 102.675 552.336 103.848C549.313 105.821 544.598 108.86 538.191 112.966C537.832 113.179 537.436 113.419 537.004 113.686C536.572 113.899 536.104 114.139 535.6 114.405C535.168 114.672 534.808 114.885 534.52 115.045C532.361 116.325 529.409 116.885 525.666 116.725C523.579 116.671 521.743 115.978 520.16 114.645C518.648 113.312 517.964 111.873 518.108 110.327C518.18 109.847 518.324 109.154 518.54 108.247C518.756 107.341 518.864 106.754 518.864 106.488C519.08 105.475 519.692 103.955 520.699 101.929C522.715 97.93 524.731 94.8108 526.746 92.5715C528.33 90.8653 529.985 89.399 531.713 88.1727C533.225 87.1063 534.988 86.6531 537.004 86.813C539.019 86.9197 540.711 87.5862 542.079 88.8125C542.942 89.6656 543.266 90.5453 543.05 91.4518C542.69 92.6781 542.331 93.6645 541.971 94.4109C540.099 97.6634 537.148 100.383 533.117 102.569C532.973 102.675 531.497 103.448 528.69 104.888C527.322 108.3 526.71 110.86 526.854 112.566C528.582 111.926 529.481 111.58 529.553 111.526C532.937 109.98 535.24 108.887 536.464 108.247C545.246 103.555 552.48 99.2629 558.167 95.3707C559.751 94.3576 561.118 93.8778 562.27 93.9311ZM536.032 91.1319C533.225 93.3712 531.137 96.3304 529.769 100.009C530.633 99.3696 531.497 98.5431 532.361 97.5301C533.225 96.517 533.98 95.4507 534.628 94.331C535.276 93.158 535.744 92.0916 536.032 91.1319Z" fill="#2196F3"/>
</svg>
