<svg width="38" height="32" viewBox="0 0 38 32" fill="none" xmlns="http://www.w3.org/2000/svg">
<path d="M38 4.21822C36.577 4.8486 35.0677 5.26238 33.5222 5.4458C35.132 4.48095 36.3681 2.95309 36.9501 1.13265C35.4198 2.04077 33.7455 2.68059 31.9996 3.02448C30.5774 1.50938 28.5514 0.5625 26.3089 0.5625C22.0033 0.5625 18.5125 4.05316 18.5125 8.35844C18.5125 8.96955 18.5816 9.56449 18.7144 10.1352C12.2351 9.81001 6.49058 6.70633 2.6453 1.98958C1.97437 3.14101 1.58991 4.48036 1.58991 5.90892C1.58991 8.61375 2.96638 10.9999 5.05816 12.398C3.82011 12.3592 2.60931 12.0249 1.52683 11.4228C1.52638 11.4554 1.52638 11.4881 1.52638 11.5209C1.52638 15.2982 4.2137 18.4492 7.78005 19.1654C6.63202 19.4777 5.42781 19.5233 4.25941 19.299C5.25142 22.3963 8.13066 24.6502 11.5421 24.7133C8.87389 26.8042 5.51223 28.0506 1.85977 28.0506C1.2304 28.0506 0.60993 28.0136 0 27.9416C3.45013 30.1537 7.54805 31.4443 11.9507 31.4443C26.2908 31.4443 34.1323 19.5647 34.1323 9.26257C34.1323 8.92443 34.1249 8.58822 34.1098 8.25394C35.636 7.15058 36.9534 5.78396 38 4.21822Z" fill="#55ACEE"/>
</svg>
